<?xml version="1.0" encoding="utf-8" standalone="no"?>
<!DOCTYPE svg PUBLIC "-//W3C//DTD SVG 1.1//EN"
  "http://www.w3.org/Graphics/SVG/1.1/DTD/svg11.dtd">
<svg xmlns:xlink="http://www.w3.org/1999/xlink" width="504.315313pt" height="244.763125pt" viewBox="0 0 504.315313 244.763125" xmlns="http://www.w3.org/2000/svg" version="1.1">
 <metadata>
  <rdf:RDF xmlns:dc="http://purl.org/dc/elements/1.1/" xmlns:cc="http://creativecommons.org/ns#" xmlns:rdf="http://www.w3.org/1999/02/22-rdf-syntax-ns#">
   <cc:Work>
    <dc:type rdf:resource="http://purl.org/dc/dcmitype/StillImage"/>
    <dc:date>2026-06-23T14:06:14.484159</dc:date>
    <dc:format>image/svg+xml</dc:format>
    <dc:creator>
     <cc:Agent>
      <dc:title>Matplotlib v3.10.0, https://matplotlib.org/</dc:title>
     </cc:Agent>
    </dc:creator>
   </cc:Work>
  </rdf:RDF>
 </metadata>
 <defs>
  <style type="text/css">*{stroke-linejoin: round; stroke-linecap: butt}</style>
 </defs>
 <g id="figure_1">
  <g id="patch_1">
   <path d="M 0 244.763125 
L 504.315313 244.763125 
L 504.315313 0 
L 0 0 
z
" style="fill: #ffffff"/>
  </g>
  <g id="axes_1">
   <g id="patch_2">
    <path d="M 55.595313 201.4 
L 497.115312 201.4 
L 497.115312 7.2 
L 55.595313 7.2 
z
" style="fill: #ffffff"/>
   </g>
   <g id="matplotlib.axis_1">
    <g id="xtick_1">
     <g id="line2d_1">
      <defs>
       <path id="m010283dae3" d="M 0 0 
L 0 3.5 
" style="stroke: #334155; stroke-width: 0.8"/>
      </defs>
      <g>
       <use xlink:href="#m010283dae3" x="55.595313" y="201.4" style="fill: #334155; stroke: #334155; stroke-width: 0.8"/>
      </g>
     </g>
     <g id="text_1">
      <text style="font-size: 13px; font-family: 'DejaVu Sans'; text-anchor: middle; fill: #334155" x="55.595313" y="218.277969" transform="rotate(-0 55.595313 218.277969)">0</text>
     </g>
    </g>
    <g id="xtick_2">
     <g id="line2d_2">
      <g>
       <use xlink:href="#m010283dae3" x="135.871676" y="201.4" style="fill: #334155; stroke: #334155; stroke-width: 0.8"/>
      </g>
     </g>
     <g id="text_2">
      <text style="font-size: 13px; font-family: 'DejaVu Sans'; text-anchor: middle; fill: #334155" x="135.871676" y="218.277969" transform="rotate(-0 135.871676 218.277969)">200</text>
     </g>
    </g>
    <g id="xtick_3">
     <g id="line2d_3">
      <g>
       <use xlink:href="#m010283dae3" x="216.14804" y="201.4" style="fill: #334155; stroke: #334155; stroke-width: 0.8"/>
      </g>
     </g>
     <g id="text_3">
      <text style="font-size: 13px; font-family: 'DejaVu Sans'; text-anchor: middle; fill: #334155" x="216.14804" y="218.277969" transform="rotate(-0 216.14804 218.277969)">400</text>
     </g>
    </g>
    <g id="xtick_4">
     <g id="line2d_4">
      <g>
       <use xlink:href="#m010283dae3" x="296.424403" y="201.4" style="fill: #334155; stroke: #334155; stroke-width: 0.8"/>
      </g>
     </g>
     <g id="text_4">
      <text style="font-size: 13px; font-family: 'DejaVu Sans'; text-anchor: middle; fill: #334155" x="296.424403" y="218.277969" transform="rotate(-0 296.424403 218.277969)">600</text>
     </g>
    </g>
    <g id="xtick_5">
     <g id="line2d_5">
      <g>
       <use xlink:href="#m010283dae3" x="376.700767" y="201.4" style="fill: #334155; stroke: #334155; stroke-width: 0.8"/>
      </g>
     </g>
     <g id="text_5">
      <text style="font-size: 13px; font-family: 'DejaVu Sans'; text-anchor: middle; fill: #334155" x="376.700767" y="218.277969" transform="rotate(-0 376.700767 218.277969)">800</text>
     </g>
    </g>
    <g id="xtick_6">
     <g id="line2d_6">
      <g>
       <use xlink:href="#m010283dae3" x="456.977131" y="201.4" style="fill: #334155; stroke: #334155; stroke-width: 0.8"/>
      </g>
     </g>
     <g id="text_6">
      <text style="font-size: 13px; font-family: 'DejaVu Sans'; text-anchor: middle; fill: #334155" x="456.977131" y="218.277969" transform="rotate(-0 456.977131 218.277969)">1000</text>
     </g>
    </g>
    <g id="text_7">
     <text style="font-size: 13px; font-family: 'DejaVu Sans'; text-anchor: middle; fill: #334155" x="276.355312" y="234.859531" transform="rotate(-0 276.355312 234.859531)">N</text>
    </g>
   </g>
   <g id="matplotlib.axis_2">
    <g id="ytick_1">
     <g id="line2d_7">
      <defs>
       <path id="m7b0f1e0b9c" d="M 0 0 
L -3.5 0 
" style="stroke: #334155; stroke-width: 0.8"/>
      </defs>
      <g>
       <use xlink:href="#m7b0f1e0b9c" x="55.595313" y="201.4" style="fill: #334155; stroke: #334155; stroke-width: 0.8"/>
      </g>
     </g>
     <g id="text_8">
      <text style="font-size: 13px; font-family: 'DejaVu Sans'; text-anchor: end; fill: #334155" x="48.595313" y="206.338984" transform="rotate(-0 48.595313 206.338984)">0</text>
     </g>
    </g>
    <g id="ytick_2">
     <g id="line2d_8">
      <g>
       <use xlink:href="#m7b0f1e0b9c" x="55.595313" y="148.913514" style="fill: #334155; stroke: #334155; stroke-width: 0.8"/>
      </g>
     </g>
     <g id="text_9">
      <text style="font-size: 13px; font-family: 'DejaVu Sans'; text-anchor: end; fill: #334155" x="48.595313" y="153.852498" transform="rotate(-0 48.595313 153.852498)">50</text>
     </g>
    </g>
    <g id="ytick_3">
     <g id="line2d_9">
      <g>
       <use xlink:href="#m7b0f1e0b9c" x="55.595313" y="96.427027" style="fill: #334155; stroke: #334155; stroke-width: 0.8"/>
      </g>
     </g>
     <g id="text_10">
      <text style="font-size: 13px; font-family: 'DejaVu Sans'; text-anchor: end; fill: #334155" x="48.595313" y="101.366011" transform="rotate(-0 48.595313 101.366011)">100</text>
     </g>
    </g>
    <g id="ytick_4">
     <g id="line2d_10">
      <g>
       <use xlink:href="#m7b0f1e0b9c" x="55.595313" y="43.940541" style="fill: #334155; stroke: #334155; stroke-width: 0.8"/>
      </g>
     </g>
     <g id="text_11">
      <text style="font-size: 13px; font-family: 'DejaVu Sans'; text-anchor: end; fill: #334155" x="48.595313" y="48.879525" transform="rotate(-0 48.595313 48.879525)">150</text>
     </g>
    </g>
    <g id="text_12">
     <text style="font-size: 13px; font-family: 'DejaVu Sans'; text-anchor: middle; fill: #334155" x="17.077969" y="104.3" transform="rotate(-90 17.077969 104.3)">count  (millions)</text>
    </g>
   </g>
   <g id="line2d_11">
    <path d="M 55.595313 201.4 
L 89.898871 201.290788 
L 108.7105 200.994576 
L 124.20243 200.526303 
L 137.481227 199.914472 
L 149.653458 199.148653 
L 161.825688 198.156609 
L 172.891353 197.033804 
L 183.957017 195.677845 
L 193.916115 194.239957 
L 203.875212 192.579362 
L 213.83431 190.680026 
L 222.686841 188.778341 
L 231.539373 186.664089 
L 240.391904 184.32601 
L 249.244435 181.752841 
L 258.096967 178.933321 
L 266.949498 175.856188 
L 274.695463 172.943519 
L 282.441428 169.81745 
L 290.187393 166.470433 
L 297.933358 162.894926 
L 305.679323 159.083384 
L 313.425287 155.028261 
L 321.171252 150.722015 
L 328.917217 146.157099 
L 336.663182 141.32597 
L 344.409147 136.221083 
L 352.155112 130.834894 
L 359.901077 125.159858 
L 367.647042 119.18843 
L 375.393007 112.913067 
L 383.138972 106.326223 
L 390.884937 99.420354 
L 398.630901 92.187915 
L 406.376866 84.621363 
L 414.122831 76.713152 
L 421.868796 68.455738 
L 429.614761 59.841577 
L 437.360726 50.863124 
L 445.106691 41.512834 
L 452.852656 31.783163 
L 460.598621 21.666566 
L 468.344586 11.1555 
L 476.090551 0.242419 
L 476.953984 -1 
L 476.953984 -1 
" clip-path="url(#p4d85c07c00)" style="fill: none; stroke: #334155; stroke-width: 2.4; stroke-linecap: square"/>
   </g>
   <g id="line2d_12">
    <path d="M 55.595313 201.4 
L 89.898871 201.294592 
L 108.7105 201.003721 
L 124.20243 200.541578 
L 137.481227 199.936246 
L 149.653458 199.177393 
L 161.825688 198.193281 
L 172.891353 197.078525 
L 183.957017 195.731412 
L 193.916115 194.302167 
L 203.875212 192.650863 
L 213.83431 190.761464 
L 222.686841 188.869153 
L 231.539373 186.764787 
L 240.391904 184.437104 
L 249.244435 181.874842 
L 258.096967 179.066739 
L 266.949498 176.001534 
L 274.695463 173.099722 
L 282.441428 169.984898 
L 290.187393 166.64952 
L 297.933358 163.086042 
L 305.679323 159.286919 
L 313.425287 155.244607 
L 321.171252 150.951562 
L 328.917217 146.400239 
L 336.663182 141.583093 
L 344.409147 136.492581 
L 352.155112 131.121157 
L 359.901077 125.461277 
L 367.647042 119.505396 
L 375.393007 113.245971 
L 383.138972 106.675456 
L 390.884937 99.786307 
L 398.630901 92.57098 
L 406.376866 85.021929 
L 414.122831 77.131611 
L 421.868796 68.892481 
L 429.614761 60.296994 
L 437.360726 51.337607 
L 445.106691 42.006773 
L 452.852656 32.29695 
L 460.598621 22.200592 
L 468.344586 11.710155 
L 476.090551 0.818094 
L 477.355635 -1 
L 477.355635 -1 
" clip-path="url(#p4d85c07c00)" style="fill: none; stroke-dasharray: 8,6; stroke-dashoffset: 0; stroke: #d39a00; stroke-width: 2"/>
   </g>
   <g id="line2d_13">
    <path d="M 456.977131 201.4 
L 456.977131 7.2 
" clip-path="url(#p4d85c07c00)" style="fill: none; stroke-dasharray: 1,1.65; stroke-dashoffset: 0; stroke: #94a3b8"/>
   </g>
   <g id="patch_3">
    <path d="M 55.595313 201.4 
L 55.595313 7.2 
" style="fill: none; stroke: #334155; stroke-width: 1.2; stroke-linejoin: miter; stroke-linecap: square"/>
   </g>
   <g id="patch_4">
    <path d="M 55.595313 201.4 
L 497.115312 201.4 
" style="fill: none; stroke: #334155; stroke-width: 1.2; stroke-linejoin: miter; stroke-linecap: square"/>
   </g>
   <g id="patch_5">
    <path d="M 302.165824 37.996287 
Q 378.572253 32.295223 453.863747 26.67735 
" style="fill: none; stroke: #94a3b8; stroke-linecap: round"/>
    <path d="M 449.312246 24.810845 
L 453.863747 26.67735 
L 449.639642 29.198647 
" style="fill: none; stroke: #94a3b8; stroke-linecap: round"/>
   </g>
   <g id="text_13">
    <text style="font-size: 11px; font-family: 'DejaVu Sans'; text-anchor: start; fill: #334155" x="228.189494" y="43.940541" transform="rotate(-0 228.189494 43.940541)">166,666,667</text>
   </g>
   <g id="patch_6">
    <path d="M 331.614225 90.414037 
Q 393.40236 59.143895 454.192935 28.378604 
" style="fill: none; stroke: #d39a00; stroke-linecap: round"/>
    <path d="M 449.273644 28.402499 
L 454.192935 28.378604 
L 451.260477 32.328374 
" style="fill: none; stroke: #d39a00; stroke-linecap: round"/>
   </g>
   <g id="text_14">
    <text style="font-size: 11px; font-family: 'DejaVu Sans'; text-anchor: start; fill: #d39a00" x="280.369131" y="101.675676" transform="rotate(-0 280.369131 101.675676)">166,167,000</text>
   </g>
   <g id="legend_1">
    <g id="line2d_14">
     <path d="M 66.395313 23.424375 
L 78.395313 23.424375 
L 90.395313 23.424375 
" style="fill: none; stroke: #334155; stroke-width: 2.4; stroke-linecap: square"/>
    </g>
    <g id="text_15">
     <!-- $N^3/6$ -->
     <g style="fill: #334155" transform="translate(99.995313 27.624375)">
      <text>
       <tspan x="0" y="-0.171875" style="font-style: oblique; font-size: 12px; font-family: 'DejaVu Sans'; fill: #334155">N</tspan>
       <tspan x="9.81875" y="-4.765625" style="font-size: 8.4px; font-family: 'DejaVu Sans'; fill: #334155">3</tspan>
       <tspan x="15.491211" y="-0.171875" style="font-size: 12px; font-family: 'DejaVu Sans'; fill: #334155">/</tspan>
       <tspan x="19.53418" y="-0.171875" style="font-size: 12px; font-family: 'DejaVu Sans'; fill: #334155">6</tspan>
      </text>
     </g>
    </g>
    <g id="line2d_15">
     <path d="M 66.395313 41.038125 
L 78.395313 41.038125 
L 90.395313 41.038125 
" style="fill: none; stroke-dasharray: 8,6; stroke-dashoffset: 0; stroke: #d39a00; stroke-width: 2"/>
    </g>
    <g id="text_16">
     <!-- $N(N{-}1)(N{-}2)/6$  (exact) -->
     <g style="fill: #334155" transform="translate(99.995313 45.238125)">
      <text>
       <tspan x="0" y="-0.890625" style="font-style: oblique; font-size: 12px; font-family: 'DejaVu Sans'; fill: #334155">N</tspan>
       <tspan x="13.658203" y="-0.890625" style="font-style: oblique; font-size: 12px; font-family: 'DejaVu Sans'; fill: #334155">N</tspan>
       <tspan x="49.6875" y="-0.890625" style="font-style: oblique; font-size: 12px; font-family: 'DejaVu Sans'; fill: #334155">N</tspan>
       <tspan x="8.976562" y="-0.890625" style="font-size: 12px; font-family: 'DejaVu Sans'; fill: #334155">(</tspan>
       <tspan x="22.634766" y="-0.890625" style="font-size: 12px; font-family: 'DejaVu Sans'; fill: #334155">−</tspan>
       <tspan x="32.689453" y="-0.890625" style="font-size: 12px; font-family: 'DejaVu Sans'; fill: #334155">1</tspan>
       <tspan x="40.324219" y="-0.890625" style="font-size: 12px; font-family: 'DejaVu Sans'; fill: #334155">)</tspan>
       <tspan x="45.005859" y="-0.890625" style="font-size: 12px; font-family: 'DejaVu Sans'; fill: #334155">(</tspan>
       <tspan x="58.664062" y="-0.890625" style="font-size: 12px; font-family: 'DejaVu Sans'; fill: #334155">−</tspan>
       <tspan x="68.71875" y="-0.890625" style="font-size: 12px; font-family: 'DejaVu Sans'; fill: #334155">2</tspan>
       <tspan x="76.353516" y="-0.890625" style="font-size: 12px; font-family: 'DejaVu Sans'; fill: #334155">)</tspan>
       <tspan x="81.035156" y="-0.890625" style="font-size: 12px; font-family: 'DejaVu Sans'; fill: #334155">/</tspan>
       <tspan x="85.078125" y="-0.890625" style="font-size: 12px; font-family: 'DejaVu Sans'; fill: #334155">6</tspan>
       <tspan x="92.712891" y="-0.890625" style="font-size: 12px; font-family: 'DejaVu Sans'; fill: #334155"> </tspan>
       <tspan x="96.527344" y="-0.890625" style="font-size: 12px; font-family: 'DejaVu Sans'; fill: #334155"> </tspan>
       <tspan x="100.341797" y="-0.890625" style="font-size: 12px; font-family: 'DejaVu Sans'; fill: #334155">(</tspan>
       <tspan x="105.023438" y="-0.890625" style="font-size: 12px; font-family: 'DejaVu Sans'; fill: #334155">e</tspan>
       <tspan x="112.40625" y="-0.890625" style="font-size: 12px; font-family: 'DejaVu Sans'; fill: #334155">x</tspan>
       <tspan x="119.507812" y="-0.890625" style="font-size: 12px; font-family: 'DejaVu Sans'; fill: #334155">a</tspan>
       <tspan x="126.861328" y="-0.890625" style="font-size: 12px; font-family: 'DejaVu Sans'; fill: #334155">c</tspan>
       <tspan x="133.458984" y="-0.890625" style="font-size: 12px; font-family: 'DejaVu Sans'; fill: #334155">t</tspan>
       <tspan x="138.164062" y="-0.890625" style="font-size: 12px; font-family: 'DejaVu Sans'; fill: #334155">)</tspan>
      </text>
     </g>
    </g>
   </g>
  </g>
 </g>
 <defs>
  <clipPath id="p4d85c07c00">
   <rect x="55.595313" y="7.2" width="441.52" height="194.2"/>
  </clipPath>
 </defs>
</svg>
