<?xml version="1.0" encoding="utf-8" standalone="no"?>
<!DOCTYPE svg PUBLIC "-//W3C//DTD SVG 1.1//EN"
  "http://www.w3.org/Graphics/SVG/1.1/DTD/svg11.dtd">
<svg xmlns:xlink="http://www.w3.org/1999/xlink" width="777.906562pt" height="286.784687pt" viewBox="0 0 777.906562 286.784687" xmlns="http://www.w3.org/2000/svg" version="1.1">
 <metadata>
  <rdf:RDF xmlns:dc="http://purl.org/dc/elements/1.1/" xmlns:cc="http://creativecommons.org/ns#" xmlns:rdf="http://www.w3.org/1999/02/22-rdf-syntax-ns#">
   <cc:Work>
    <dc:type rdf:resource="http://purl.org/dc/dcmitype/StillImage"/>
    <dc:date>2026-06-23T14:06:14.790103</dc:date>
    <dc:format>image/svg+xml</dc:format>
    <dc:creator>
     <cc:Agent>
      <dc:title>Matplotlib v3.10.0, https://matplotlib.org/</dc:title>
     </cc:Agent>
    </dc:creator>
   </cc:Work>
  </rdf:RDF>
 </metadata>
 <defs>
  <style type="text/css">*{stroke-linejoin: round; stroke-linecap: butt}</style>
 </defs>
 <g id="figure_1">
  <g id="patch_1">
   <path d="M 0 286.784687 
L 777.906562 286.784687 
L 777.906562 0 
L 0 0 
z
" style="fill: #ffffff"/>
  </g>
  <g id="axes_1">
   <g id="patch_2">
    <path d="M 63.866563 243.421562 
L 383.717931 243.421562 
L 383.717931 25.053562 
L 63.866563 25.053562 
z
" style="fill: #ffffff"/>
   </g>
   <g id="matplotlib.axis_1">
    <g id="xtick_1">
     <g id="line2d_1">
      <defs>
       <path id="mbe1be155a6" d="M 0 0 
L 0 3.5 
" style="stroke: #334155; stroke-width: 0.8"/>
      </defs>
      <g>
       <use xlink:href="#mbe1be155a6" x="63.866563" y="243.421562" style="fill: #334155; stroke: #334155; stroke-width: 0.8"/>
      </g>
     </g>
     <g id="text_1">
      <text style="font-size: 13px; font-family: 'DejaVu Sans'; text-anchor: middle; fill: #334155" x="63.866563" y="260.299531" transform="rotate(-0 63.866563 260.299531)">0</text>
     </g>
    </g>
    <g id="xtick_2">
     <g id="line2d_2">
      <g>
       <use xlink:href="#mbe1be155a6" x="103.847984" y="243.421562" style="fill: #334155; stroke: #334155; stroke-width: 0.8"/>
      </g>
     </g>
     <g id="text_2">
      <text style="font-size: 13px; font-family: 'DejaVu Sans'; text-anchor: middle; fill: #334155" x="103.847984" y="260.299531" transform="rotate(-0 103.847984 260.299531)">5</text>
     </g>
    </g>
    <g id="xtick_3">
     <g id="line2d_3">
      <g>
       <use xlink:href="#mbe1be155a6" x="143.829405" y="243.421562" style="fill: #334155; stroke: #334155; stroke-width: 0.8"/>
      </g>
     </g>
     <g id="text_3">
      <text style="font-size: 13px; font-family: 'DejaVu Sans'; text-anchor: middle; fill: #334155" x="143.829405" y="260.299531" transform="rotate(-0 143.829405 260.299531)">10</text>
     </g>
    </g>
    <g id="xtick_4">
     <g id="line2d_4">
      <g>
       <use xlink:href="#mbe1be155a6" x="183.810826" y="243.421562" style="fill: #334155; stroke: #334155; stroke-width: 0.8"/>
      </g>
     </g>
     <g id="text_4">
      <text style="font-size: 13px; font-family: 'DejaVu Sans'; text-anchor: middle; fill: #334155" x="183.810826" y="260.299531" transform="rotate(-0 183.810826 260.299531)">15</text>
     </g>
    </g>
    <g id="xtick_5">
     <g id="line2d_5">
      <g>
       <use xlink:href="#mbe1be155a6" x="223.792247" y="243.421562" style="fill: #334155; stroke: #334155; stroke-width: 0.8"/>
      </g>
     </g>
     <g id="text_5">
      <text style="font-size: 13px; font-family: 'DejaVu Sans'; text-anchor: middle; fill: #334155" x="223.792247" y="260.299531" transform="rotate(-0 223.792247 260.299531)">20</text>
     </g>
    </g>
    <g id="xtick_6">
     <g id="line2d_6">
      <g>
       <use xlink:href="#mbe1be155a6" x="263.773668" y="243.421562" style="fill: #334155; stroke: #334155; stroke-width: 0.8"/>
      </g>
     </g>
     <g id="text_6">
      <text style="font-size: 13px; font-family: 'DejaVu Sans'; text-anchor: middle; fill: #334155" x="263.773668" y="260.299531" transform="rotate(-0 263.773668 260.299531)">25</text>
     </g>
    </g>
    <g id="xtick_7">
     <g id="line2d_7">
      <g>
       <use xlink:href="#mbe1be155a6" x="303.755089" y="243.421562" style="fill: #334155; stroke: #334155; stroke-width: 0.8"/>
      </g>
     </g>
     <g id="text_7">
      <text style="font-size: 13px; font-family: 'DejaVu Sans'; text-anchor: middle; fill: #334155" x="303.755089" y="260.299531" transform="rotate(-0 303.755089 260.299531)">30</text>
     </g>
    </g>
    <g id="xtick_8">
     <g id="line2d_8">
      <g>
       <use xlink:href="#mbe1be155a6" x="343.73651" y="243.421562" style="fill: #334155; stroke: #334155; stroke-width: 0.8"/>
      </g>
     </g>
     <g id="text_8">
      <text style="font-size: 13px; font-family: 'DejaVu Sans'; text-anchor: middle; fill: #334155" x="343.73651" y="260.299531" transform="rotate(-0 343.73651 260.299531)">35</text>
     </g>
    </g>
    <g id="xtick_9">
     <g id="line2d_9">
      <g>
       <use xlink:href="#mbe1be155a6" x="383.717931" y="243.421562" style="fill: #334155; stroke: #334155; stroke-width: 0.8"/>
      </g>
     </g>
     <g id="text_9">
      <text style="font-size: 13px; font-family: 'DejaVu Sans'; text-anchor: middle; fill: #334155" x="383.717931" y="260.299531" transform="rotate(-0 383.717931 260.299531)">40</text>
     </g>
    </g>
    <g id="text_10">
     <text style="font-size: 13px; font-family: 'DejaVu Sans'; text-anchor: middle; fill: #334155" x="223.792247" y="276.881094" transform="rotate(-0 223.792247 276.881094)">problem size</text>
    </g>
   </g>
   <g id="matplotlib.axis_2">
    <g id="ytick_1">
     <g id="line2d_10">
      <defs>
       <path id="m19728ce5fc" d="M 0 0 
L -3.5 0 
" style="stroke: #334155; stroke-width: 0.8"/>
      </defs>
      <g>
       <use xlink:href="#m19728ce5fc" x="63.866563" y="243.421562" style="fill: #334155; stroke: #334155; stroke-width: 0.8"/>
      </g>
     </g>
     <g id="text_11">
      <text style="font-size: 13px; font-family: 'DejaVu Sans'; text-anchor: end; fill: #334155" x="56.866563" y="248.360547" transform="rotate(-0 56.866563 248.360547)">0</text>
     </g>
    </g>
    <g id="ytick_2">
     <g id="line2d_11">
      <g>
       <use xlink:href="#m19728ce5fc" x="63.866563" y="199.747962" style="fill: #334155; stroke: #334155; stroke-width: 0.8"/>
      </g>
     </g>
     <g id="text_12">
      <text style="font-size: 13px; font-family: 'DejaVu Sans'; text-anchor: end; fill: #334155" x="56.866563" y="204.686947" transform="rotate(-0 56.866563 204.686947)">200</text>
     </g>
    </g>
    <g id="ytick_3">
     <g id="line2d_12">
      <g>
       <use xlink:href="#m19728ce5fc" x="63.866563" y="156.074362" style="fill: #334155; stroke: #334155; stroke-width: 0.8"/>
      </g>
     </g>
     <g id="text_13">
      <text style="font-size: 13px; font-family: 'DejaVu Sans'; text-anchor: end; fill: #334155" x="56.866563" y="161.013347" transform="rotate(-0 56.866563 161.013347)">400</text>
     </g>
    </g>
    <g id="ytick_4">
     <g id="line2d_13">
      <g>
       <use xlink:href="#m19728ce5fc" x="63.866563" y="112.400762" style="fill: #334155; stroke: #334155; stroke-width: 0.8"/>
      </g>
     </g>
     <g id="text_14">
      <text style="font-size: 13px; font-family: 'DejaVu Sans'; text-anchor: end; fill: #334155" x="56.866563" y="117.339747" transform="rotate(-0 56.866563 117.339747)">600</text>
     </g>
    </g>
    <g id="ytick_5">
     <g id="line2d_14">
      <g>
       <use xlink:href="#m19728ce5fc" x="63.866563" y="68.727162" style="fill: #334155; stroke: #334155; stroke-width: 0.8"/>
      </g>
     </g>
     <g id="text_15">
      <text style="font-size: 13px; font-family: 'DejaVu Sans'; text-anchor: end; fill: #334155" x="56.866563" y="73.666147" transform="rotate(-0 56.866563 73.666147)">800</text>
     </g>
    </g>
    <g id="ytick_6">
     <g id="line2d_15">
      <g>
       <use xlink:href="#m19728ce5fc" x="63.866563" y="25.053562" style="fill: #334155; stroke: #334155; stroke-width: 0.8"/>
      </g>
     </g>
     <g id="text_16">
      <text style="font-size: 13px; font-family: 'DejaVu Sans'; text-anchor: end; fill: #334155" x="56.866563" y="29.992547" transform="rotate(-0 56.866563 29.992547)">1000</text>
     </g>
    </g>
    <g id="text_17">
     <text style="font-size: 13px; font-family: 'DejaVu Sans'; text-anchor: middle; fill: #334155" x="17.077969" y="134.237562" transform="rotate(-90 17.077969 134.237562)">time</text>
    </g>
   </g>
   <g id="line2d_16">
    <path d="M 71.862847 243.203194 
L 383.717931 243.203194 
L 383.717931 243.203194 
" clip-path="url(#p9117767f66)" style="fill: none; stroke: #64748b; stroke-width: 2; stroke-linecap: square"/>
   </g>
   <g id="line2d_17">
    <path d="M 71.862847 243.421562 
L 81.241947 243.177068 
L 100.781739 242.939665 
L 141.424507 242.70578 
L 226.618001 242.472274 
L 383.717931 242.259424 
L 383.717931 242.259424 
" clip-path="url(#p9117767f66)" style="fill: none; stroke: #0891b2; stroke-width: 2; stroke-linecap: square"/>
   </g>
   <g id="line2d_18">
    <path d="M 71.862847 243.203194 
L 383.717931 234.686842 
L 383.717931 234.686842 
" clip-path="url(#p9117767f66)" style="fill: none; stroke: #1aa34a; stroke-width: 2; stroke-linecap: square"/>
   </g>
   <g id="line2d_19">
    <path d="M 71.862847 243.421562 
L 79.678764 242.996818 
L 89.839456 242.216057 
L 103.126514 240.960303 
L 118.758348 239.255496 
L 137.516549 236.978849 
L 158.619524 234.192266 
L 182.848867 230.764845 
L 210.204576 226.661762 
L 239.90506 221.978642 
L 272.731911 216.57303 
L 307.903537 210.555585 
L 346.20153 203.776239 
L 383.717931 196.936011 
L 383.717931 196.936011 
" clip-path="url(#p9117767f66)" style="fill: none; stroke: #16a34a; stroke-width: 2; stroke-linecap: square"/>
   </g>
   <g id="line2d_20">
    <path d="M 71.862847 243.203194 
L 77.333989 242.802147 
L 82.80513 242.196645 
L 88.276272 241.386687 
L 93.747414 240.372274 
L 99.218556 239.153406 
L 104.689698 237.730082 
L 110.16084 236.102303 
L 115.631981 234.270068 
L 121.884715 231.925732 
L 128.137448 229.314353 
L 134.390182 226.435929 
L 140.642915 223.290462 
L 146.895649 219.877952 
L 153.148383 216.198397 
L 159.401116 212.251799 
L 165.65385 208.038157 
L 171.906583 203.557471 
L 178.159317 198.809742 
L 184.41205 193.794969 
L 190.664784 188.513152 
L 196.917517 182.964291 
L 203.951842 176.402622 
L 210.986168 169.502976 
L 218.020493 162.265353 
L 225.054818 154.689752 
L 232.089143 146.776174 
L 239.123468 138.524619 
L 246.157794 129.935087 
L 253.192119 121.007578 
L 260.226444 111.742091 
L 267.260769 102.138627 
L 275.076686 91.071718 
L 282.892603 79.587554 
L 290.70852 67.686134 
L 298.524437 55.367458 
L 306.340354 42.631526 
L 314.156271 29.478338 
L 321.972188 15.907895 
L 329.788105 1.920196 
L 331.390959 -1 
L 331.390959 -1 
" clip-path="url(#p9117767f66)" style="fill: none; stroke: #d39a00; stroke-width: 2; stroke-linecap: square"/>
   </g>
   <g id="line2d_21">
    <path d="M 71.862847 243.203194 
L 74.989213 242.833871 
L 77.333989 242.378337 
L 79.678764 241.733062 
L 82.023539 240.865009 
L 84.368314 239.741144 
L 86.713089 238.328431 
L 89.057864 236.593836 
L 91.402639 234.504321 
L 93.747414 232.026853 
L 96.092189 229.128396 
L 98.436964 225.775915 
L 100.781739 221.936373 
L 103.126514 217.576736 
L 105.471289 212.663969 
L 107.816064 207.165035 
L 110.16084 201.0469 
L 112.505615 194.276529 
L 114.85039 186.820885 
L 117.195165 178.646934 
L 119.53994 169.72164 
L 121.884715 160.011967 
L 124.22949 149.484881 
L 126.574265 138.107347 
L 128.91904 125.846327 
L 131.263815 112.668789 
L 134.390182 93.615941 
L 137.516549 72.79669 
L 140.642915 50.132729 
L 143.769282 25.545752 
L 146.890786 -1 
L 146.890786 -1 
" clip-path="url(#p9117767f66)" style="fill: none; stroke: #ea580c; stroke-width: 2; stroke-linecap: square"/>
   </g>
   <g id="line2d_22">
    <path d="M 71.862847 242.984826 
L 78.897172 242.617972 
L 84.368314 242.130335 
L 89.057864 241.482702 
L 92.965822 240.700951 
L 96.092189 239.854075 
L 99.218556 238.743582 
L 101.563331 237.689243 
L 103.908106 236.397274 
L 106.252881 234.814116 
L 108.597656 232.874142 
L 110.16084 231.343584 
L 111.724023 229.590925 
L 113.287206 227.583933 
L 114.85039 225.285703 
L 116.413573 222.653972 
L 117.976756 219.640345 
L 119.53994 216.189405 
L 121.103123 212.237692 
L 122.666307 207.712538 
L 124.22949 202.53073 
L 125.792673 196.596979 
L 127.355857 189.802169 
L 128.91904 182.021352 
L 130.482223 173.111444 
L 132.045407 162.908601 
L 133.60859 151.225203 
L 135.171774 137.846405 
L 136.734957 122.526181 
L 138.29814 104.98281 
L 139.861324 84.893684 
L 141.424507 61.889385 
L 142.987691 35.546887 
L 144.849797 -1 
L 144.849797 -1 
" clip-path="url(#p9117767f66)" style="fill: none; stroke: #e2483d; stroke-width: 2; stroke-linecap: square"/>
   </g>
   <g id="patch_3">
    <path d="M 63.866563 243.421562 
L 63.866563 25.053562 
" style="fill: none; stroke: #334155; stroke-width: 1.2; stroke-linejoin: miter; stroke-linecap: square"/>
   </g>
   <g id="patch_4">
    <path d="M 63.866563 243.421562 
L 383.717931 243.421562 
" style="fill: none; stroke: #334155; stroke-width: 1.2; stroke-linejoin: miter; stroke-linecap: square"/>
   </g>
   <g id="text_18">
    <text style="font-weight: 700; font-size: 15.6px; font-family: 'DejaVu Sans'; text-anchor: start; fill: #7c5cff" x="63.866563" y="19.053562" transform="rotate(-0 63.866563 19.053562)">standard plot</text>
   </g>
  </g>
  <g id="axes_2">
   <g id="patch_5">
    <path d="M 450.855194 243.421562 
L 770.706563 243.421562 
L 770.706563 25.053562 
L 450.855194 25.053562 
z
" style="fill: #ffffff"/>
   </g>
   <g id="matplotlib.axis_3">
    <g id="xtick_10">
     <g id="line2d_23">
      <g>
       <use xlink:href="#mbe1be155a6" x="450.855194" y="243.421562" style="fill: #334155; stroke: #334155; stroke-width: 0.8"/>
      </g>
     </g>
     <g id="text_19">
      <!-- $\mathdefault{2^{0}}$ -->
      <g style="fill: #334155" transform="translate(443.575194 260.299531)">
       <text>
        <tspan x="0" y="-0.264063" style="font-size: 13px; font-family: 'DejaVu Sans'; fill: #334155">2</tspan>
        <tspan x="8.39541" y="-5.240625" style="font-size: 9.1px; font-family: 'DejaVu Sans'; fill: #334155">0</tspan>
       </text>
      </g>
     </g>
    </g>
    <g id="xtick_11">
     <g id="line2d_24">
      <g>
       <use xlink:href="#mbe1be155a6" x="521.933276" y="243.421562" style="fill: #334155; stroke: #334155; stroke-width: 0.8"/>
      </g>
     </g>
     <g id="text_20">
      <!-- $\mathdefault{2^{2}}$ -->
      <g style="fill: #334155" transform="translate(514.653276 260.299531)">
       <text>
        <tspan x="0" y="-0.264063" style="font-size: 13px; font-family: 'DejaVu Sans'; fill: #334155">2</tspan>
        <tspan x="8.39541" y="-5.240625" style="font-size: 9.1px; font-family: 'DejaVu Sans'; fill: #334155">2</tspan>
       </text>
      </g>
     </g>
    </g>
    <g id="xtick_12">
     <g id="line2d_25">
      <g>
       <use xlink:href="#mbe1be155a6" x="593.011358" y="243.421562" style="fill: #334155; stroke: #334155; stroke-width: 0.8"/>
      </g>
     </g>
     <g id="text_21">
      <!-- $\mathdefault{2^{4}}$ -->
      <g style="fill: #334155" transform="translate(585.731358 260.299531)">
       <text>
        <tspan x="0" y="-0.384375" style="font-size: 13px; font-family: 'DejaVu Sans'; fill: #334155">2</tspan>
        <tspan x="8.39541" y="-5.360938" style="font-size: 9.1px; font-family: 'DejaVu Sans'; fill: #334155">4</tspan>
       </text>
      </g>
     </g>
    </g>
    <g id="xtick_13">
     <g id="line2d_26">
      <g>
       <use xlink:href="#mbe1be155a6" x="664.08944" y="243.421562" style="fill: #334155; stroke: #334155; stroke-width: 0.8"/>
      </g>
     </g>
     <g id="text_22">
      <!-- $\mathdefault{2^{6}}$ -->
      <g style="fill: #334155" transform="translate(656.80944 260.299531)">
       <text>
        <tspan x="0" y="-0.264063" style="font-size: 13px; font-family: 'DejaVu Sans'; fill: #334155">2</tspan>
        <tspan x="8.39541" y="-5.240625" style="font-size: 9.1px; font-family: 'DejaVu Sans'; fill: #334155">6</tspan>
       </text>
      </g>
     </g>
    </g>
    <g id="xtick_14">
     <g id="line2d_27">
      <g>
       <use xlink:href="#mbe1be155a6" x="735.167522" y="243.421562" style="fill: #334155; stroke: #334155; stroke-width: 0.8"/>
      </g>
     </g>
     <g id="text_23">
      <!-- $\mathdefault{2^{8}}$ -->
      <g style="fill: #334155" transform="translate(727.887522 260.299531)">
       <text>
        <tspan x="0" y="-0.264063" style="font-size: 13px; font-family: 'DejaVu Sans'; fill: #334155">2</tspan>
        <tspan x="8.39541" y="-5.240625" style="font-size: 9.1px; font-family: 'DejaVu Sans'; fill: #334155">8</tspan>
       </text>
      </g>
     </g>
    </g>
    <g id="text_24">
     <text style="font-size: 13px; font-family: 'DejaVu Sans'; text-anchor: middle; fill: #334155" x="610.780878" y="276.881094" transform="rotate(-0 610.780878 276.881094)">problem size</text>
    </g>
   </g>
   <g id="matplotlib.axis_4">
    <g id="ytick_7">
     <g id="line2d_28">
      <g>
       <use xlink:href="#m19728ce5fc" x="450.855194" y="243.421562" style="fill: #334155; stroke: #334155; stroke-width: 0.8"/>
      </g>
     </g>
     <g id="text_25">
      <!-- $\mathdefault{2^{0}}$ -->
      <g style="fill: #334155" transform="translate(429.295194 248.360547)">
       <text>
        <tspan x="0" y="-0.264063" style="font-size: 13px; font-family: 'DejaVu Sans'; fill: #334155">2</tspan>
        <tspan x="8.39541" y="-5.240625" style="font-size: 9.1px; font-family: 'DejaVu Sans'; fill: #334155">0</tspan>
       </text>
      </g>
     </g>
    </g>
    <g id="ytick_8">
     <g id="line2d_29">
      <g>
       <use xlink:href="#m19728ce5fc" x="450.855194" y="214.205866" style="fill: #334155; stroke: #334155; stroke-width: 0.8"/>
      </g>
     </g>
     <g id="text_26">
      <!-- $\mathdefault{2^{4}}$ -->
      <g style="fill: #334155" transform="translate(429.295194 219.14485)">
       <text>
        <tspan x="0" y="-0.384375" style="font-size: 13px; font-family: 'DejaVu Sans'; fill: #334155">2</tspan>
        <tspan x="8.39541" y="-5.360938" style="font-size: 9.1px; font-family: 'DejaVu Sans'; fill: #334155">4</tspan>
       </text>
      </g>
     </g>
    </g>
    <g id="ytick_9">
     <g id="line2d_30">
      <g>
       <use xlink:href="#m19728ce5fc" x="450.855194" y="184.990169" style="fill: #334155; stroke: #334155; stroke-width: 0.8"/>
      </g>
     </g>
     <g id="text_27">
      <!-- $\mathdefault{2^{8}}$ -->
      <g style="fill: #334155" transform="translate(429.295194 189.929153)">
       <text>
        <tspan x="0" y="-0.264063" style="font-size: 13px; font-family: 'DejaVu Sans'; fill: #334155">2</tspan>
        <tspan x="8.39541" y="-5.240625" style="font-size: 9.1px; font-family: 'DejaVu Sans'; fill: #334155">8</tspan>
       </text>
      </g>
     </g>
    </g>
    <g id="ytick_10">
     <g id="line2d_31">
      <g>
       <use xlink:href="#m19728ce5fc" x="450.855194" y="155.774472" style="fill: #334155; stroke: #334155; stroke-width: 0.8"/>
      </g>
     </g>
     <g id="text_28">
      <!-- $\mathdefault{2^{12}}$ -->
      <g style="fill: #334155" transform="translate(423.445194 160.713456)">
       <text>
        <tspan x="0" y="-0.264063" style="font-size: 13px; font-family: 'DejaVu Sans'; fill: #334155">2</tspan>
        <tspan x="8.39541" y="-5.240625" style="font-size: 9.1px; font-family: 'DejaVu Sans'; fill: #334155">1</tspan>
        <tspan x="14.185107" y="-5.240625" style="font-size: 9.1px; font-family: 'DejaVu Sans'; fill: #334155">2</tspan>
       </text>
      </g>
     </g>
    </g>
    <g id="ytick_11">
     <g id="line2d_32">
      <g>
       <use xlink:href="#m19728ce5fc" x="450.855194" y="126.558775" style="fill: #334155; stroke: #334155; stroke-width: 0.8"/>
      </g>
     </g>
     <g id="text_29">
      <!-- $\mathdefault{2^{16}}$ -->
      <g style="fill: #334155" transform="translate(423.445194 131.497759)">
       <text>
        <tspan x="0" y="-0.264063" style="font-size: 13px; font-family: 'DejaVu Sans'; fill: #334155">2</tspan>
        <tspan x="8.39541" y="-5.240625" style="font-size: 9.1px; font-family: 'DejaVu Sans'; fill: #334155">1</tspan>
        <tspan x="14.185107" y="-5.240625" style="font-size: 9.1px; font-family: 'DejaVu Sans'; fill: #334155">6</tspan>
       </text>
      </g>
     </g>
    </g>
    <g id="ytick_12">
     <g id="line2d_33">
      <g>
       <use xlink:href="#m19728ce5fc" x="450.855194" y="97.343078" style="fill: #334155; stroke: #334155; stroke-width: 0.8"/>
      </g>
     </g>
     <g id="text_30">
      <!-- $\mathdefault{2^{20}}$ -->
      <g style="fill: #334155" transform="translate(423.445194 102.282062)">
       <text>
        <tspan x="0" y="-0.264063" style="font-size: 13px; font-family: 'DejaVu Sans'; fill: #334155">2</tspan>
        <tspan x="8.39541" y="-5.240625" style="font-size: 9.1px; font-family: 'DejaVu Sans'; fill: #334155">2</tspan>
        <tspan x="14.185107" y="-5.240625" style="font-size: 9.1px; font-family: 'DejaVu Sans'; fill: #334155">0</tspan>
       </text>
      </g>
     </g>
    </g>
    <g id="ytick_13">
     <g id="line2d_34">
      <g>
       <use xlink:href="#m19728ce5fc" x="450.855194" y="68.127381" style="fill: #334155; stroke: #334155; stroke-width: 0.8"/>
      </g>
     </g>
     <g id="text_31">
      <!-- $\mathdefault{2^{24}}$ -->
      <g style="fill: #334155" transform="translate(423.445194 73.066365)">
       <text>
        <tspan x="0" y="-0.264063" style="font-size: 13px; font-family: 'DejaVu Sans'; fill: #334155">2</tspan>
        <tspan x="8.39541" y="-5.240625" style="font-size: 9.1px; font-family: 'DejaVu Sans'; fill: #334155">2</tspan>
        <tspan x="14.185107" y="-5.240625" style="font-size: 9.1px; font-family: 'DejaVu Sans'; fill: #334155">4</tspan>
       </text>
      </g>
     </g>
    </g>
    <g id="ytick_14">
     <g id="line2d_35">
      <g>
       <use xlink:href="#m19728ce5fc" x="450.855194" y="38.911684" style="fill: #334155; stroke: #334155; stroke-width: 0.8"/>
      </g>
     </g>
     <g id="text_32">
      <!-- $\mathdefault{2^{28}}$ -->
      <g style="fill: #334155" transform="translate(423.445194 43.850668)">
       <text>
        <tspan x="0" y="-0.264063" style="font-size: 13px; font-family: 'DejaVu Sans'; fill: #334155">2</tspan>
        <tspan x="8.39541" y="-5.240625" style="font-size: 9.1px; font-family: 'DejaVu Sans'; fill: #334155">2</tspan>
        <tspan x="14.185107" y="-5.240625" style="font-size: 9.1px; font-family: 'DejaVu Sans'; fill: #334155">8</tspan>
       </text>
      </g>
     </g>
    </g>
    <g id="text_33">
     <text style="font-size: 13px; font-family: 'DejaVu Sans'; text-anchor: middle; fill: #334155" x="416.7416" y="134.237562" transform="rotate(-90 416.7416 134.237562)">time</text>
    </g>
   </g>
   <g id="line2d_36">
    <path d="M 450.855194 243.421562 
L 770.706563 243.421562 
L 770.706563 243.421562 
" clip-path="url(#p86cfb2b6e5)" style="fill: none; stroke: #64748b; stroke-width: 2; stroke-linecap: square"/>
   </g>
   <g id="line2d_37">
    <path d="M 451.637019 287.784687 
L 451.656826 283.376365 
L 452.458459 276.072441 
L 453.260091 271.799919 
L 454.061724 268.768516 
L 454.863356 266.417178 
L 455.664989 264.495995 
L 457.268254 261.464592 
L 458.871519 259.113254 
L 460.474784 257.19207 
L 462.078049 255.567733 
L 464.482946 253.521846 
L 466.887844 251.809329 
L 469.292741 250.336611 
L 472.499271 248.647027 
L 475.705801 247.19129 
L 479.713964 245.615624 
L 484.523759 243.991287 
L 490.135186 242.36695 
L 496.548247 240.773378 
L 503.762939 239.228568 
L 511.779264 237.741976 
L 521.398854 236.197166 
L 532.621709 234.641476 
L 545.447829 233.106061 
L 559.877214 231.610073 
L 576.711497 230.097008 
L 595.950677 228.598059 
L 618.396387 227.082398 
L 644.048627 225.581221 
L 673.70903 224.076234 
L 707.377595 222.593633 
L 746.657587 221.092319 
L 770.706563 220.26867 
L 770.706563 220.26867 
" clip-path="url(#p86cfb2b6e5)" style="fill: none; stroke: #0891b2; stroke-width: 2; stroke-linecap: square"/>
   </g>
   <g id="line2d_38">
    <path d="M 450.855194 243.421562 
L 770.706563 177.686244 
L 770.706563 177.686244 
" clip-path="url(#p86cfb2b6e5)" style="fill: none; stroke: #1aa34a; stroke-width: 2; stroke-linecap: square"/>
   </g>
   <g id="line2d_39">
    <path d="M 451.636298 287.784687 
L 451.656826 283.211615 
L 452.458459 275.74294 
L 453.260091 271.305668 
L 454.061724 268.109516 
L 454.863356 265.593427 
L 456.466621 261.718406 
L 458.069886 258.740721 
L 459.673151 256.296687 
L 461.276416 254.206881 
L 463.681314 251.524665 
L 466.086211 249.219571 
L 468.491109 247.18051 
L 471.697639 244.761205 
L 475.705801 242.084035 
L 479.713964 239.684618 
L 484.523759 237.07178 
L 490.135186 234.294191 
L 496.548247 231.382618 
L 503.762939 228.355057 
L 512.580897 224.918468 
L 522.200487 221.415333 
L 533.423342 217.569404 
L 546.249462 213.411868 
L 561.480479 208.720717 
L 579.116394 203.537529 
L 599.157207 197.888944 
L 622.404549 191.57674 
L 648.858422 184.628801 
L 679.320457 176.860393 
L 714.592287 168.098555 
L 755.475545 158.177724 
L 770.706563 154.533352 
L 770.706563 154.533352 
" clip-path="url(#p86cfb2b6e5)" style="fill: none; stroke: #16a34a; stroke-width: 2; stroke-linecap: square"/>
   </g>
   <g id="line2d_40">
    <path d="M 450.855194 243.421562 
L 770.706563 111.950926 
L 770.706563 111.950926 
" clip-path="url(#p86cfb2b6e5)" style="fill: none; stroke: #d39a00; stroke-width: 2; stroke-linecap: square"/>
   </g>
   <g id="line2d_41">
    <path d="M 450.855194 243.421562 
L 770.706563 46.215608 
L 770.706563 46.215608 
" clip-path="url(#p86cfb2b6e5)" style="fill: none; stroke: #ea580c; stroke-width: 2; stroke-linecap: square"/>
   </g>
   <g id="line2d_42">
    <path d="M 450.855194 236.117638 
L 459.673151 234.746993 
L 467.689476 233.27896 
L 474.904169 231.746458 
L 482.118861 229.982403 
L 488.531921 228.191793 
L 494.944982 226.162606 
L 500.556409 224.166471 
L 506.167837 221.939468 
L 511.779264 219.454893 
L 516.589059 217.097763 
L 521.398854 214.508807 
L 526.208649 211.665227 
L 531.018444 208.541979 
L 535.828239 205.111559 
L 539.836402 201.996522 
L 543.844564 198.628197 
L 547.852727 194.985989 
L 551.860889 191.047629 
L 555.869052 186.789035 
L 559.877214 182.184169 
L 563.885377 177.204875 
L 567.893539 171.820709 
L 571.901702 165.998749 
L 575.909864 159.703397 
L 579.918027 152.896162 
L 583.124557 147.05396 
L 586.331087 140.834722 
L 589.537617 134.214115 
L 592.744147 127.166236 
L 595.950677 119.663512 
L 599.157207 111.676587 
L 602.363737 103.174213 
L 605.570267 94.123125 
L 608.776797 84.48791 
L 611.983327 74.230871 
L 615.189857 63.311878 
L 618.396387 51.688209 
L 621.602917 39.314389 
L 624.809447 26.142004 
L 628.015977 12.119518 
L 630.843094 -1 
L 630.843094 -1 
" clip-path="url(#p86cfb2b6e5)" style="fill: none; stroke: #e2483d; stroke-width: 2; stroke-linecap: square"/>
   </g>
   <g id="patch_6">
    <path d="M 450.855194 243.421562 
L 450.855194 25.053562 
" style="fill: none; stroke: #334155; stroke-width: 1.2; stroke-linejoin: miter; stroke-linecap: square"/>
   </g>
   <g id="patch_7">
    <path d="M 450.855194 243.421562 
L 770.706563 243.421562 
" style="fill: none; stroke: #334155; stroke-width: 1.2; stroke-linejoin: miter; stroke-linecap: square"/>
   </g>
   <g id="text_34">
    <text style="font-weight: 700; font-size: 15.6px; font-family: 'DejaVu Sans'; text-anchor: start; fill: #7c5cff" x="450.855194" y="19.053562" transform="rotate(-0 450.855194 19.053562)">log-log plot</text>
   </g>
   <g id="legend_1">
    <g id="line2d_43">
     <path d="M 459.405194 37.497078 
L 468.905194 37.497078 
L 478.405194 37.497078 
" style="fill: none; stroke: #64748b; stroke-width: 2; stroke-linecap: square"/>
    </g>
    <g id="text_35">
     <text style="font-size: 9.5px; font-family: 'DejaVu Sans'; text-anchor: start; fill: #334155" x="486.005194" y="40.822078" transform="rotate(-0 486.005194 40.822078)">constant</text>
    </g>
    <g id="line2d_44">
     <path d="M 459.405194 51.441297 
L 468.905194 51.441297 
L 478.405194 51.441297 
" style="fill: none; stroke: #0891b2; stroke-width: 2; stroke-linecap: square"/>
    </g>
    <g id="text_36">
     <text style="font-size: 9.5px; font-family: 'DejaVu Sans'; text-anchor: start; fill: #334155" x="486.005194" y="54.766297" transform="rotate(-0 486.005194 54.766297)">logarithmic</text>
    </g>
    <g id="line2d_45">
     <path d="M 459.405194 65.385516 
L 468.905194 65.385516 
L 478.405194 65.385516 
" style="fill: none; stroke: #1aa34a; stroke-width: 2; stroke-linecap: square"/>
    </g>
    <g id="text_37">
     <text style="font-size: 9.5px; font-family: 'DejaVu Sans'; text-anchor: start; fill: #334155" x="486.005194" y="68.710516" transform="rotate(-0 486.005194 68.710516)">linear</text>
    </g>
    <g id="line2d_46">
     <path d="M 459.405194 79.329734 
L 468.905194 79.329734 
L 478.405194 79.329734 
" style="fill: none; stroke: #16a34a; stroke-width: 2; stroke-linecap: square"/>
    </g>
    <g id="text_38">
     <text style="font-size: 9.5px; font-family: 'DejaVu Sans'; text-anchor: start; fill: #334155" x="486.005194" y="82.654734" transform="rotate(-0 486.005194 82.654734)">linearithmic</text>
    </g>
    <g id="line2d_47">
     <path d="M 459.405194 93.273953 
L 468.905194 93.273953 
L 478.405194 93.273953 
" style="fill: none; stroke: #d39a00; stroke-width: 2; stroke-linecap: square"/>
    </g>
    <g id="text_39">
     <text style="font-size: 9.5px; font-family: 'DejaVu Sans'; text-anchor: start; fill: #334155" x="486.005194" y="96.598953" transform="rotate(-0 486.005194 96.598953)">quadratic</text>
    </g>
    <g id="line2d_48">
     <path d="M 459.405194 107.218172 
L 468.905194 107.218172 
L 478.405194 107.218172 
" style="fill: none; stroke: #ea580c; stroke-width: 2; stroke-linecap: square"/>
    </g>
    <g id="text_40">
     <text style="font-size: 9.5px; font-family: 'DejaVu Sans'; text-anchor: start; fill: #334155" x="486.005194" y="110.543172" transform="rotate(-0 486.005194 110.543172)">cubic</text>
    </g>
    <g id="line2d_49">
     <path d="M 459.405194 121.162391 
L 468.905194 121.162391 
L 478.405194 121.162391 
" style="fill: none; stroke: #e2483d; stroke-width: 2; stroke-linecap: square"/>
    </g>
    <g id="text_41">
     <text style="font-size: 9.5px; font-family: 'DejaVu Sans'; text-anchor: start; fill: #334155" x="486.005194" y="124.487391" transform="rotate(-0 486.005194 124.487391)">exponential</text>
    </g>
   </g>
  </g>
 </g>
 <defs>
  <clipPath id="p9117767f66">
   <rect x="63.866563" y="25.053562" width="319.851369" height="218.368"/>
  </clipPath>
  <clipPath id="p86cfb2b6e5">
   <rect x="450.855194" y="25.053562" width="319.851369" height="218.368"/>
  </clipPath>
 </defs>
</svg>
