<?xml version="1.0" encoding="utf-8" standalone="no"?>
<!DOCTYPE svg PUBLIC "-//W3C//DTD SVG 1.1//EN"
  "http://www.w3.org/Graphics/SVG/1.1/DTD/svg11.dtd">
<svg xmlns:xlink="http://www.w3.org/1999/xlink" width="446.4pt" height="259.2pt" viewBox="0 0 446.4 259.2" xmlns="http://www.w3.org/2000/svg" version="1.1">
 <metadata>
  <rdf:RDF xmlns:dc="http://purl.org/dc/elements/1.1/" xmlns:cc="http://creativecommons.org/ns#" xmlns:rdf="http://www.w3.org/1999/02/22-rdf-syntax-ns#">
   <cc:Work>
    <dc:type rdf:resource="http://purl.org/dc/dcmitype/StillImage"/>
    <dc:date>2026-06-24T16:11:02.347731</dc:date>
    <dc:format>image/svg+xml</dc:format>
    <dc:creator>
     <cc:Agent>
      <dc:title>Matplotlib v3.10.0, https://matplotlib.org/</dc:title>
     </cc:Agent>
    </dc:creator>
   </cc:Work>
  </rdf:RDF>
 </metadata>
 <defs>
  <style type="text/css">*{stroke-linejoin: round; stroke-linecap: butt}</style>
 </defs>
 <g id="figure_1">
  <g id="patch_1">
   <path d="M 0 259.2 
L 446.4 259.2 
L 446.4 0 
L 0 0 
z
" style="fill: #ffffff"/>
  </g>
  <g id="axes_1">
   <g id="patch_2">
    <path d="M 52.4 220.12 
L 435.6 220.12 
L 435.6 25.44 
L 52.4 25.44 
z
" style="fill: #ffffff"/>
   </g>
   <g id="FillBetweenPolyCollection_1">
    <defs>
     <path id="m62bdcb31d9" d="M 253.167464 -101.321259 
L 253.167464 -72.846359 
L 254.040556 -73.064362 
L 254.913648 -73.283306 
L 255.78674 -73.503192 
L 256.659831 -73.724019 
L 257.532923 -73.945789 
L 258.406015 -74.1685 
L 259.279107 -74.392152 
L 260.152199 -74.616747 
L 261.02529 -74.842283 
L 261.898382 -75.068761 
L 262.771474 -75.29618 
L 263.644566 -75.524542 
L 264.517658 -75.753844 
L 265.39075 -75.984089 
L 266.263841 -76.215275 
L 267.136933 -76.447403 
L 268.010025 -76.680473 
L 268.883117 -76.914484 
L 269.756209 -77.149437 
L 270.629301 -77.385332 
L 271.502392 -77.622169 
L 272.375484 -77.859947 
L 273.248576 -78.098667 
L 274.121668 -78.338328 
L 274.99476 -78.578932 
L 275.867851 -78.820477 
L 276.740943 -79.062963 
L 277.614035 -79.306391 
L 278.487127 -79.550762 
L 279.360219 -79.796073 
L 280.233311 -80.042327 
L 281.106402 -80.289522 
L 281.979494 -80.537659 
L 282.852586 -80.786737 
L 283.725678 -81.036757 
L 284.59877 -81.287719 
L 285.471861 -81.539623 
L 286.344953 -81.792468 
L 287.218045 -82.046255 
L 288.091137 -82.300984 
L 288.964229 -82.556654 
L 289.837321 -82.813266 
L 290.710412 -83.07082 
L 291.583504 -83.329315 
L 292.456596 -83.588753 
L 293.329688 -83.849132 
L 294.20278 -84.110452 
L 295.075871 -84.372714 
L 295.948963 -84.635918 
L 296.822055 -84.900064 
L 297.695147 -85.165151 
L 298.568239 -85.43118 
L 299.441331 -85.698151 
L 300.314422 -85.966063 
L 301.187514 -86.234918 
L 302.060606 -86.504713 
L 302.933698 -86.775451 
L 303.80679 -87.04713 
L 304.679882 -87.319751 
L 305.552973 -87.593314 
L 306.426065 -87.867818 
L 307.299157 -88.143264 
L 308.172249 -88.419652 
L 309.045341 -88.696981 
L 309.918432 -88.975252 
L 310.791524 -89.254465 
L 311.664616 -89.534619 
L 312.537708 -89.815715 
L 313.4108 -90.097753 
L 314.283892 -90.380733 
L 315.156983 -90.664654 
L 316.030075 -90.949517 
L 316.903167 -91.235322 
L 317.776259 -91.522068 
L 318.649351 -91.809756 
L 319.522442 -92.098386 
L 320.395534 -92.387957 
L 321.268626 -92.67847 
L 322.141718 -92.969925 
L 323.01481 -93.262322 
L 323.887902 -93.55566 
L 324.760993 -93.84994 
L 325.634085 -94.145161 
L 326.507177 -94.441325 
L 327.380269 -94.73843 
L 328.253361 -95.036476 
L 329.126452 -95.335465 
L 329.999544 -95.635395 
L 330.872636 -95.936267 
L 331.745728 -96.23808 
L 332.61882 -96.540835 
L 333.491912 -96.844532 
L 334.365003 -97.149171 
L 335.238095 -97.454751 
L 336.111187 -97.761273 
L 336.984279 -98.068737 
L 337.857371 -98.377142 
L 338.730463 -98.686489 
L 339.603554 -98.996778 
L 340.476646 -99.308008 
L 341.349738 -99.62018 
L 342.22283 -99.933294 
L 343.095922 -100.24735 
L 343.969013 -100.562347 
L 344.842105 -100.878286 
L 345.715197 -101.195166 
L 346.588289 -101.512989 
L 347.461381 -101.831753 
L 348.334473 -102.151458 
L 349.207564 -102.472106 
L 350.080656 -102.793695 
L 350.953748 -103.116225 
L 351.82684 -103.439698 
L 352.699932 -103.764112 
L 353.573023 -104.089468 
L 354.446115 -104.415766 
L 355.319207 -104.743005 
L 356.192299 -105.071186 
L 357.065391 -105.400308 
L 357.938483 -105.730373 
L 358.811574 -106.061379 
L 359.684666 -106.393326 
L 360.557758 -106.726216 
L 361.43085 -107.060047 
L 362.303942 -107.39482 
L 363.177033 -107.730534 
L 364.050125 -108.067191 
L 364.923217 -108.404788 
L 365.796309 -108.743328 
L 366.669401 -109.082809 
L 367.542493 -109.423232 
L 368.415584 -109.764597 
L 369.288676 -110.106903 
L 370.161768 -110.450152 
L 371.03486 -110.794341 
L 371.907952 -111.139473 
L 372.781044 -111.485546 
L 373.654135 -111.832561 
L 374.527227 -112.180517 
L 375.400319 -112.529416 
L 376.273411 -112.879256 
L 377.146503 -113.230037 
L 378.019594 -113.581761 
L 378.892686 -113.934426 
L 379.765778 -114.288032 
L 380.63887 -114.642581 
L 381.511962 -114.998071 
L 382.385054 -115.354503 
L 383.258145 -115.711876 
L 384.131237 -116.070191 
L 385.004329 -116.429448 
L 385.877421 -116.789647 
L 386.750513 -117.150787 
L 387.623604 -117.512869 
L 388.496696 -117.875893 
L 389.369788 -118.239858 
L 390.24288 -118.604765 
L 391.115972 -118.970614 
L 391.989064 -119.337405 
L 392.862155 -119.705137 
L 393.735247 -120.073811 
L 394.608339 -120.443426 
L 395.481431 -120.813984 
L 396.354523 -121.185482 
L 397.227614 -121.557923 
L 398.100706 -121.931305 
L 398.973798 -122.305629 
L 399.84689 -122.680895 
L 400.719982 -123.057103 
L 401.593074 -123.434252 
L 402.466165 -123.812343 
L 403.339257 -124.191375 
L 404.212349 -124.571349 
L 405.085441 -124.952265 
L 405.958533 -125.334123 
L 406.831625 -125.716922 
L 407.704716 -126.100663 
L 408.577808 -126.485346 
L 409.4509 -126.87097 
L 410.323992 -127.257536 
L 411.197084 -127.645044 
L 412.070175 -128.033494 
L 412.943267 -128.422885 
L 413.816359 -128.813218 
L 414.689451 -129.204492 
L 415.562543 -129.596708 
L 416.435635 -129.989866 
L 417.308726 -130.383966 
L 418.181818 -130.779007 
L 418.181818 -224.910909 
L 418.181818 -224.910909 
L 417.308726 -224.068154 
L 416.435635 -223.227408 
L 415.562543 -222.388671 
L 414.689451 -221.551943 
L 413.816359 -220.717224 
L 412.943267 -219.884514 
L 412.070175 -219.053813 
L 411.197084 -218.225121 
L 410.323992 -217.398438 
L 409.4509 -216.573763 
L 408.577808 -215.751098 
L 407.704716 -214.930441 
L 406.831625 -214.111794 
L 405.958533 -213.295155 
L 405.085441 -212.480526 
L 404.212349 -211.667905 
L 403.339257 -210.857294 
L 402.466165 -210.048691 
L 401.593074 -209.242097 
L 400.719982 -208.437512 
L 399.84689 -207.634937 
L 398.973798 -206.83437 
L 398.100706 -206.035812 
L 397.227614 -205.239263 
L 396.354523 -204.444723 
L 395.481431 -203.652192 
L 394.608339 -202.861669 
L 393.735247 -202.073156 
L 392.862155 -201.286652 
L 391.989064 -200.502157 
L 391.115972 -199.71967 
L 390.24288 -198.939193 
L 389.369788 -198.160724 
L 388.496696 -197.384265 
L 387.623604 -196.609814 
L 386.750513 -195.837373 
L 385.877421 -195.06694 
L 385.004329 -194.298517 
L 384.131237 -193.532102 
L 383.258145 -192.767696 
L 382.385054 -192.005299 
L 381.511962 -191.244911 
L 380.63887 -190.486532 
L 379.765778 -189.730162 
L 378.892686 -188.975801 
L 378.019594 -188.223449 
L 377.146503 -187.473106 
L 376.273411 -186.724772 
L 375.400319 -185.978447 
L 374.527227 -185.23413 
L 373.654135 -184.491823 
L 372.781044 -183.751525 
L 371.907952 -183.013235 
L 371.03486 -182.276955 
L 370.161768 -181.542683 
L 369.288676 -180.810421 
L 368.415584 -180.080167 
L 367.542493 -179.351922 
L 366.669401 -178.625687 
L 365.796309 -177.90146 
L 364.923217 -177.179242 
L 364.050125 -176.459033 
L 363.177033 -175.740833 
L 362.303942 -175.024642 
L 361.43085 -174.31046 
L 360.557758 -173.598287 
L 359.684666 -172.888123 
L 358.811574 -172.179968 
L 357.938483 -171.473822 
L 357.065391 -170.769685 
L 356.192299 -170.067556 
L 355.319207 -169.367437 
L 354.446115 -168.669326 
L 353.573023 -167.973225 
L 352.699932 -167.279133 
L 351.82684 -166.587049 
L 350.953748 -165.896974 
L 350.080656 -165.208909 
L 349.207564 -164.522852 
L 348.334473 -163.838804 
L 347.461381 -163.156765 
L 346.588289 -162.476736 
L 345.715197 -161.798715 
L 344.842105 -161.122703 
L 343.969013 -160.4487 
L 343.095922 -159.776706 
L 342.22283 -159.106721 
L 341.349738 -158.438744 
L 340.476646 -157.772777 
L 339.603554 -157.108819 
L 338.730463 -156.44687 
L 337.857371 -155.786929 
L 336.984279 -155.128998 
L 336.111187 -154.473076 
L 335.238095 -153.819162 
L 334.365003 -153.167258 
L 333.491912 -152.517362 
L 332.61882 -151.869475 
L 331.745728 -151.223598 
L 330.872636 -150.579729 
L 329.999544 -149.937869 
L 329.126452 -149.298018 
L 328.253361 -148.660176 
L 327.380269 -148.024343 
L 326.507177 -147.390519 
L 325.634085 -146.758704 
L 324.760993 -146.128898 
L 323.887902 -145.501101 
L 323.01481 -144.875313 
L 322.141718 -144.251534 
L 321.268626 -143.629763 
L 320.395534 -143.010002 
L 319.522442 -142.39225 
L 318.649351 -141.776506 
L 317.776259 -141.162772 
L 316.903167 -140.551046 
L 316.030075 -139.94133 
L 315.156983 -139.333622 
L 314.283892 -138.727924 
L 313.4108 -138.124234 
L 312.537708 -137.522553 
L 311.664616 -136.922881 
L 310.791524 -136.325218 
L 309.918432 -135.729564 
L 309.045341 -135.135919 
L 308.172249 -134.544283 
L 307.299157 -133.954656 
L 306.426065 -133.367038 
L 305.552973 -132.781429 
L 304.679882 -132.197829 
L 303.80679 -131.616238 
L 302.933698 -131.036655 
L 302.060606 -130.459082 
L 301.187514 -129.883518 
L 300.314422 -129.309962 
L 299.441331 -128.738416 
L 298.568239 -128.168878 
L 297.695147 -127.601349 
L 296.822055 -127.03583 
L 295.948963 -126.472319 
L 295.075871 -125.910817 
L 294.20278 -125.351324 
L 293.329688 -124.793841 
L 292.456596 -124.238366 
L 291.583504 -123.6849 
L 290.710412 -123.133443 
L 289.837321 -122.583995 
L 288.964229 -122.036556 
L 288.091137 -121.491125 
L 287.218045 -120.947704 
L 286.344953 -120.406292 
L 285.471861 -119.866889 
L 284.59877 -119.329494 
L 283.725678 -118.794109 
L 282.852586 -118.260733 
L 281.979494 -117.729365 
L 281.106402 -117.200007 
L 280.233311 -116.672657 
L 279.360219 -116.147316 
L 278.487127 -115.623985 
L 277.614035 -115.102662 
L 276.740943 -114.583348 
L 275.867851 -114.066043 
L 274.99476 -113.550747 
L 274.121668 -113.03746 
L 273.248576 -112.526182 
L 272.375484 -112.016913 
L 271.502392 -111.509653 
L 270.629301 -111.004402 
L 269.756209 -110.50116 
L 268.883117 -109.999927 
L 268.010025 -109.500703 
L 267.136933 -109.003487 
L 266.263841 -108.508281 
L 265.39075 -108.015083 
L 264.517658 -107.523895 
L 263.644566 -107.034715 
L 262.771474 -106.547545 
L 261.898382 -106.062383 
L 261.02529 -105.579231 
L 260.152199 -105.098087 
L 259.279107 -104.618952 
L 258.406015 -104.141826 
L 257.532923 -103.666709 
L 256.659831 -103.193601 
L 255.78674 -102.722502 
L 254.913648 -102.253412 
L 254.040556 -101.786331 
L 253.167464 -101.321259 
z
" style="stroke: #d39a00; stroke-opacity: 0.1"/>
    </defs>
    <g clip-path="url(#pc0d378bb53)">
     <use xlink:href="#m62bdcb31d9" x="0" y="259.2" style="fill: #d39a00; fill-opacity: 0.1; stroke: #d39a00; stroke-opacity: 0.1"/>
    </g>
   </g>
   <g id="matplotlib.axis_1">
    <g id="xtick_1">
     <g id="line2d_1">
      <path d="M 97.320574 220.12 
L 97.320574 25.44 
" clip-path="url(#pc0d378bb53)" style="fill: none; stroke: #b0b0b0; stroke-opacity: 0.12; stroke-width: 0.8; stroke-linecap: square"/>
     </g>
     <g id="line2d_2">
      <defs>
       <path id="m73d9a2d77b" d="M 0 0 
L 0 3.5 
" style="stroke: #94a3b8; stroke-width: 0.8"/>
      </defs>
      <g>
       <use xlink:href="#m73d9a2d77b" x="97.320574" y="220.12" style="fill: #94a3b8; stroke: #94a3b8; stroke-width: 0.8"/>
      </g>
     </g>
     <g id="text_1">
      <!-- 2.5 -->
      <g style="fill: #94a3b8" transform="translate(90.959324 233.19875) scale(0.08 -0.08)">
       <defs>
        <path id="DejaVuSans-32" d="M 1228 531 
L 3431 531 
L 3431 0 
L 469 0 
L 469 531 
Q 828 903 1448 1529 
Q 2069 2156 2228 2338 
Q 2531 2678 2651 2914 
Q 2772 3150 2772 3378 
Q 2772 3750 2511 3984 
Q 2250 4219 1831 4219 
Q 1534 4219 1204 4116 
Q 875 4013 500 3803 
L 500 4441 
Q 881 4594 1212 4672 
Q 1544 4750 1819 4750 
Q 2544 4750 2975 4387 
Q 3406 4025 3406 3419 
Q 3406 3131 3298 2873 
Q 3191 2616 2906 2266 
Q 2828 2175 2409 1742 
Q 1991 1309 1228 531 
z
" transform="scale(0.015625)"/>
        <path id="DejaVuSans-2e" d="M 684 794 
L 1344 794 
L 1344 0 
L 684 0 
L 684 794 
z
" transform="scale(0.015625)"/>
        <path id="DejaVuSans-35" d="M 691 4666 
L 3169 4666 
L 3169 4134 
L 1269 4134 
L 1269 2991 
Q 1406 3038 1543 3061 
Q 1681 3084 1819 3084 
Q 2600 3084 3056 2656 
Q 3513 2228 3513 1497 
Q 3513 744 3044 326 
Q 2575 -91 1722 -91 
Q 1428 -91 1123 -41 
Q 819 9 494 109 
L 494 744 
Q 775 591 1075 516 
Q 1375 441 1709 441 
Q 2250 441 2565 725 
Q 2881 1009 2881 1497 
Q 2881 1984 2565 2268 
Q 2250 2553 1709 2553 
Q 1456 2553 1204 2497 
Q 953 2441 691 2322 
L 691 4666 
z
" transform="scale(0.015625)"/>
       </defs>
       <use xlink:href="#DejaVuSans-32"/>
       <use xlink:href="#DejaVuSans-2e" transform="translate(63.623047 0)"/>
       <use xlink:href="#DejaVuSans-35" transform="translate(95.410156 0)"/>
      </g>
     </g>
    </g>
    <g id="xtick_2">
     <g id="line2d_3">
      <path d="M 143.157895 220.12 
L 143.157895 25.44 
" clip-path="url(#pc0d378bb53)" style="fill: none; stroke: #b0b0b0; stroke-opacity: 0.12; stroke-width: 0.8; stroke-linecap: square"/>
     </g>
     <g id="line2d_4">
      <g>
       <use xlink:href="#m73d9a2d77b" x="143.157895" y="220.12" style="fill: #94a3b8; stroke: #94a3b8; stroke-width: 0.8"/>
      </g>
     </g>
     <g id="text_2">
      <!-- 5.0 -->
      <g style="fill: #94a3b8" transform="translate(136.796645 233.19875) scale(0.08 -0.08)">
       <defs>
        <path id="DejaVuSans-30" d="M 2034 4250 
Q 1547 4250 1301 3770 
Q 1056 3291 1056 2328 
Q 1056 1369 1301 889 
Q 1547 409 2034 409 
Q 2525 409 2770 889 
Q 3016 1369 3016 2328 
Q 3016 3291 2770 3770 
Q 2525 4250 2034 4250 
z
M 2034 4750 
Q 2819 4750 3233 4129 
Q 3647 3509 3647 2328 
Q 3647 1150 3233 529 
Q 2819 -91 2034 -91 
Q 1250 -91 836 529 
Q 422 1150 422 2328 
Q 422 3509 836 4129 
Q 1250 4750 2034 4750 
z
" transform="scale(0.015625)"/>
       </defs>
       <use xlink:href="#DejaVuSans-35"/>
       <use xlink:href="#DejaVuSans-2e" transform="translate(63.623047 0)"/>
       <use xlink:href="#DejaVuSans-30" transform="translate(95.410156 0)"/>
      </g>
     </g>
    </g>
    <g id="xtick_3">
     <g id="line2d_5">
      <path d="M 188.995215 220.12 
L 188.995215 25.44 
" clip-path="url(#pc0d378bb53)" style="fill: none; stroke: #b0b0b0; stroke-opacity: 0.12; stroke-width: 0.8; stroke-linecap: square"/>
     </g>
     <g id="line2d_6">
      <g>
       <use xlink:href="#m73d9a2d77b" x="188.995215" y="220.12" style="fill: #94a3b8; stroke: #94a3b8; stroke-width: 0.8"/>
      </g>
     </g>
     <g id="text_3">
      <!-- 7.5 -->
      <g style="fill: #94a3b8" transform="translate(182.633965 233.19875) scale(0.08 -0.08)">
       <defs>
        <path id="DejaVuSans-37" d="M 525 4666 
L 3525 4666 
L 3525 4397 
L 1831 0 
L 1172 0 
L 2766 4134 
L 525 4134 
L 525 4666 
z
" transform="scale(0.015625)"/>
       </defs>
       <use xlink:href="#DejaVuSans-37"/>
       <use xlink:href="#DejaVuSans-2e" transform="translate(63.623047 0)"/>
       <use xlink:href="#DejaVuSans-35" transform="translate(95.410156 0)"/>
      </g>
     </g>
    </g>
    <g id="xtick_4">
     <g id="line2d_7">
      <path d="M 234.832536 220.12 
L 234.832536 25.44 
" clip-path="url(#pc0d378bb53)" style="fill: none; stroke: #b0b0b0; stroke-opacity: 0.12; stroke-width: 0.8; stroke-linecap: square"/>
     </g>
     <g id="line2d_8">
      <g>
       <use xlink:href="#m73d9a2d77b" x="234.832536" y="220.12" style="fill: #94a3b8; stroke: #94a3b8; stroke-width: 0.8"/>
      </g>
     </g>
     <g id="text_4">
      <!-- 10.0 -->
      <g style="fill: #94a3b8" transform="translate(225.926286 233.19875) scale(0.08 -0.08)">
       <defs>
        <path id="DejaVuSans-31" d="M 794 531 
L 1825 531 
L 1825 4091 
L 703 3866 
L 703 4441 
L 1819 4666 
L 2450 4666 
L 2450 531 
L 3481 531 
L 3481 0 
L 794 0 
L 794 531 
z
" transform="scale(0.015625)"/>
       </defs>
       <use xlink:href="#DejaVuSans-31"/>
       <use xlink:href="#DejaVuSans-30" transform="translate(63.623047 0)"/>
       <use xlink:href="#DejaVuSans-2e" transform="translate(127.246094 0)"/>
       <use xlink:href="#DejaVuSans-30" transform="translate(159.033203 0)"/>
      </g>
     </g>
    </g>
    <g id="xtick_5">
     <g id="line2d_9">
      <path d="M 280.669856 220.12 
L 280.669856 25.44 
" clip-path="url(#pc0d378bb53)" style="fill: none; stroke: #b0b0b0; stroke-opacity: 0.12; stroke-width: 0.8; stroke-linecap: square"/>
     </g>
     <g id="line2d_10">
      <g>
       <use xlink:href="#m73d9a2d77b" x="280.669856" y="220.12" style="fill: #94a3b8; stroke: #94a3b8; stroke-width: 0.8"/>
      </g>
     </g>
     <g id="text_5">
      <!-- 12.5 -->
      <g style="fill: #94a3b8" transform="translate(271.763606 233.19875) scale(0.08 -0.08)">
       <use xlink:href="#DejaVuSans-31"/>
       <use xlink:href="#DejaVuSans-32" transform="translate(63.623047 0)"/>
       <use xlink:href="#DejaVuSans-2e" transform="translate(127.246094 0)"/>
       <use xlink:href="#DejaVuSans-35" transform="translate(159.033203 0)"/>
      </g>
     </g>
    </g>
    <g id="xtick_6">
     <g id="line2d_11">
      <path d="M 326.507177 220.12 
L 326.507177 25.44 
" clip-path="url(#pc0d378bb53)" style="fill: none; stroke: #b0b0b0; stroke-opacity: 0.12; stroke-width: 0.8; stroke-linecap: square"/>
     </g>
     <g id="line2d_12">
      <g>
       <use xlink:href="#m73d9a2d77b" x="326.507177" y="220.12" style="fill: #94a3b8; stroke: #94a3b8; stroke-width: 0.8"/>
      </g>
     </g>
     <g id="text_6">
      <!-- 15.0 -->
      <g style="fill: #94a3b8" transform="translate(317.600927 233.19875) scale(0.08 -0.08)">
       <use xlink:href="#DejaVuSans-31"/>
       <use xlink:href="#DejaVuSans-35" transform="translate(63.623047 0)"/>
       <use xlink:href="#DejaVuSans-2e" transform="translate(127.246094 0)"/>
       <use xlink:href="#DejaVuSans-30" transform="translate(159.033203 0)"/>
      </g>
     </g>
    </g>
    <g id="xtick_7">
     <g id="line2d_13">
      <path d="M 372.344498 220.12 
L 372.344498 25.44 
" clip-path="url(#pc0d378bb53)" style="fill: none; stroke: #b0b0b0; stroke-opacity: 0.12; stroke-width: 0.8; stroke-linecap: square"/>
     </g>
     <g id="line2d_14">
      <g>
       <use xlink:href="#m73d9a2d77b" x="372.344498" y="220.12" style="fill: #94a3b8; stroke: #94a3b8; stroke-width: 0.8"/>
      </g>
     </g>
     <g id="text_7">
      <!-- 17.5 -->
      <g style="fill: #94a3b8" transform="translate(363.438248 233.19875) scale(0.08 -0.08)">
       <use xlink:href="#DejaVuSans-31"/>
       <use xlink:href="#DejaVuSans-37" transform="translate(63.623047 0)"/>
       <use xlink:href="#DejaVuSans-2e" transform="translate(127.246094 0)"/>
       <use xlink:href="#DejaVuSans-35" transform="translate(159.033203 0)"/>
      </g>
     </g>
    </g>
    <g id="xtick_8">
     <g id="line2d_15">
      <path d="M 418.181818 220.12 
L 418.181818 25.44 
" clip-path="url(#pc0d378bb53)" style="fill: none; stroke: #b0b0b0; stroke-opacity: 0.12; stroke-width: 0.8; stroke-linecap: square"/>
     </g>
     <g id="line2d_16">
      <g>
       <use xlink:href="#m73d9a2d77b" x="418.181818" y="220.12" style="fill: #94a3b8; stroke: #94a3b8; stroke-width: 0.8"/>
      </g>
     </g>
     <g id="text_8">
      <!-- 20.0 -->
      <g style="fill: #94a3b8" transform="translate(409.275568 233.19875) scale(0.08 -0.08)">
       <use xlink:href="#DejaVuSans-32"/>
       <use xlink:href="#DejaVuSans-30" transform="translate(63.623047 0)"/>
       <use xlink:href="#DejaVuSans-2e" transform="translate(127.246094 0)"/>
       <use xlink:href="#DejaVuSans-30" transform="translate(159.033203 0)"/>
      </g>
     </g>
    </g>
    <g id="text_9">
     <!-- n -->
     <g style="fill: #334155" transform="translate(240.83125 246.460938) scale(0.1 -0.1)">
      <defs>
       <path id="DejaVuSans-6e" d="M 3513 2113 
L 3513 0 
L 2938 0 
L 2938 2094 
Q 2938 2591 2744 2837 
Q 2550 3084 2163 3084 
Q 1697 3084 1428 2787 
Q 1159 2491 1159 1978 
L 1159 0 
L 581 0 
L 581 3500 
L 1159 3500 
L 1159 2956 
Q 1366 3272 1645 3428 
Q 1925 3584 2291 3584 
Q 2894 3584 3203 3211 
Q 3513 2838 3513 2113 
z
" transform="scale(0.015625)"/>
      </defs>
      <use xlink:href="#DejaVuSans-6e"/>
     </g>
    </g>
   </g>
   <g id="matplotlib.axis_2">
    <g id="ytick_1">
     <g id="line2d_17">
      <path d="M 52.4 211.478553 
L 435.6 211.478553 
" clip-path="url(#pc0d378bb53)" style="fill: none; stroke: #b0b0b0; stroke-opacity: 0.12; stroke-width: 0.8; stroke-linecap: square"/>
     </g>
     <g id="line2d_18">
      <defs>
       <path id="m9dc57a9029" d="M 0 0 
L -3.5 0 
" style="stroke: #94a3b8; stroke-width: 0.8"/>
      </defs>
      <g>
       <use xlink:href="#m9dc57a9029" x="52.4" y="211.478553" style="fill: #94a3b8; stroke: #94a3b8; stroke-width: 0.8"/>
      </g>
     </g>
     <g id="text_10">
      <!-- 0 -->
      <g style="fill: #94a3b8" transform="translate(40.31 214.517928) scale(0.08 -0.08)">
       <use xlink:href="#DejaVuSans-30"/>
      </g>
     </g>
    </g>
    <g id="ytick_2">
     <g id="line2d_19">
      <path d="M 52.4 183.7927 
L 435.6 183.7927 
" clip-path="url(#pc0d378bb53)" style="fill: none; stroke: #b0b0b0; stroke-opacity: 0.12; stroke-width: 0.8; stroke-linecap: square"/>
     </g>
     <g id="line2d_20">
      <g>
       <use xlink:href="#m9dc57a9029" x="52.4" y="183.7927" style="fill: #94a3b8; stroke: #94a3b8; stroke-width: 0.8"/>
      </g>
     </g>
     <g id="text_11">
      <!-- 200 -->
      <g style="fill: #94a3b8" transform="translate(30.13 186.832075) scale(0.08 -0.08)">
       <use xlink:href="#DejaVuSans-32"/>
       <use xlink:href="#DejaVuSans-30" transform="translate(63.623047 0)"/>
       <use xlink:href="#DejaVuSans-30" transform="translate(127.246094 0)"/>
      </g>
     </g>
    </g>
    <g id="ytick_3">
     <g id="line2d_21">
      <path d="M 52.4 156.106846 
L 435.6 156.106846 
" clip-path="url(#pc0d378bb53)" style="fill: none; stroke: #b0b0b0; stroke-opacity: 0.12; stroke-width: 0.8; stroke-linecap: square"/>
     </g>
     <g id="line2d_22">
      <g>
       <use xlink:href="#m9dc57a9029" x="52.4" y="156.106846" style="fill: #94a3b8; stroke: #94a3b8; stroke-width: 0.8"/>
      </g>
     </g>
     <g id="text_12">
      <!-- 400 -->
      <g style="fill: #94a3b8" transform="translate(30.13 159.146221) scale(0.08 -0.08)">
       <defs>
        <path id="DejaVuSans-34" d="M 2419 4116 
L 825 1625 
L 2419 1625 
L 2419 4116 
z
M 2253 4666 
L 3047 4666 
L 3047 1625 
L 3713 1625 
L 3713 1100 
L 3047 1100 
L 3047 0 
L 2419 0 
L 2419 1100 
L 313 1100 
L 313 1709 
L 2253 4666 
z
" transform="scale(0.015625)"/>
       </defs>
       <use xlink:href="#DejaVuSans-34"/>
       <use xlink:href="#DejaVuSans-30" transform="translate(63.623047 0)"/>
       <use xlink:href="#DejaVuSans-30" transform="translate(127.246094 0)"/>
      </g>
     </g>
    </g>
    <g id="ytick_4">
     <g id="line2d_23">
      <path d="M 52.4 128.420993 
L 435.6 128.420993 
" clip-path="url(#pc0d378bb53)" style="fill: none; stroke: #b0b0b0; stroke-opacity: 0.12; stroke-width: 0.8; stroke-linecap: square"/>
     </g>
     <g id="line2d_24">
      <g>
       <use xlink:href="#m9dc57a9029" x="52.4" y="128.420993" style="fill: #94a3b8; stroke: #94a3b8; stroke-width: 0.8"/>
      </g>
     </g>
     <g id="text_13">
      <!-- 600 -->
      <g style="fill: #94a3b8" transform="translate(30.13 131.460368) scale(0.08 -0.08)">
       <defs>
        <path id="DejaVuSans-36" d="M 2113 2584 
Q 1688 2584 1439 2293 
Q 1191 2003 1191 1497 
Q 1191 994 1439 701 
Q 1688 409 2113 409 
Q 2538 409 2786 701 
Q 3034 994 3034 1497 
Q 3034 2003 2786 2293 
Q 2538 2584 2113 2584 
z
M 3366 4563 
L 3366 3988 
Q 3128 4100 2886 4159 
Q 2644 4219 2406 4219 
Q 1781 4219 1451 3797 
Q 1122 3375 1075 2522 
Q 1259 2794 1537 2939 
Q 1816 3084 2150 3084 
Q 2853 3084 3261 2657 
Q 3669 2231 3669 1497 
Q 3669 778 3244 343 
Q 2819 -91 2113 -91 
Q 1303 -91 875 529 
Q 447 1150 447 2328 
Q 447 3434 972 4092 
Q 1497 4750 2381 4750 
Q 2619 4750 2861 4703 
Q 3103 4656 3366 4563 
z
" transform="scale(0.015625)"/>
       </defs>
       <use xlink:href="#DejaVuSans-36"/>
       <use xlink:href="#DejaVuSans-30" transform="translate(63.623047 0)"/>
       <use xlink:href="#DejaVuSans-30" transform="translate(127.246094 0)"/>
      </g>
     </g>
    </g>
    <g id="ytick_5">
     <g id="line2d_25">
      <path d="M 52.4 100.735139 
L 435.6 100.735139 
" clip-path="url(#pc0d378bb53)" style="fill: none; stroke: #b0b0b0; stroke-opacity: 0.12; stroke-width: 0.8; stroke-linecap: square"/>
     </g>
     <g id="line2d_26">
      <g>
       <use xlink:href="#m9dc57a9029" x="52.4" y="100.735139" style="fill: #94a3b8; stroke: #94a3b8; stroke-width: 0.8"/>
      </g>
     </g>
     <g id="text_14">
      <!-- 800 -->
      <g style="fill: #94a3b8" transform="translate(30.13 103.774514) scale(0.08 -0.08)">
       <defs>
        <path id="DejaVuSans-38" d="M 2034 2216 
Q 1584 2216 1326 1975 
Q 1069 1734 1069 1313 
Q 1069 891 1326 650 
Q 1584 409 2034 409 
Q 2484 409 2743 651 
Q 3003 894 3003 1313 
Q 3003 1734 2745 1975 
Q 2488 2216 2034 2216 
z
M 1403 2484 
Q 997 2584 770 2862 
Q 544 3141 544 3541 
Q 544 4100 942 4425 
Q 1341 4750 2034 4750 
Q 2731 4750 3128 4425 
Q 3525 4100 3525 3541 
Q 3525 3141 3298 2862 
Q 3072 2584 2669 2484 
Q 3125 2378 3379 2068 
Q 3634 1759 3634 1313 
Q 3634 634 3220 271 
Q 2806 -91 2034 -91 
Q 1263 -91 848 271 
Q 434 634 434 1313 
Q 434 1759 690 2068 
Q 947 2378 1403 2484 
z
M 1172 3481 
Q 1172 3119 1398 2916 
Q 1625 2713 2034 2713 
Q 2441 2713 2670 2916 
Q 2900 3119 2900 3481 
Q 2900 3844 2670 4047 
Q 2441 4250 2034 4250 
Q 1625 4250 1398 4047 
Q 1172 3844 1172 3481 
z
" transform="scale(0.015625)"/>
       </defs>
       <use xlink:href="#DejaVuSans-38"/>
       <use xlink:href="#DejaVuSans-30" transform="translate(63.623047 0)"/>
       <use xlink:href="#DejaVuSans-30" transform="translate(127.246094 0)"/>
      </g>
     </g>
    </g>
    <g id="ytick_6">
     <g id="line2d_27">
      <path d="M 52.4 73.049286 
L 435.6 73.049286 
" clip-path="url(#pc0d378bb53)" style="fill: none; stroke: #b0b0b0; stroke-opacity: 0.12; stroke-width: 0.8; stroke-linecap: square"/>
     </g>
     <g id="line2d_28">
      <g>
       <use xlink:href="#m9dc57a9029" x="52.4" y="73.049286" style="fill: #94a3b8; stroke: #94a3b8; stroke-width: 0.8"/>
      </g>
     </g>
     <g id="text_15">
      <!-- 1000 -->
      <g style="fill: #94a3b8" transform="translate(25.04 76.088661) scale(0.08 -0.08)">
       <use xlink:href="#DejaVuSans-31"/>
       <use xlink:href="#DejaVuSans-30" transform="translate(63.623047 0)"/>
       <use xlink:href="#DejaVuSans-30" transform="translate(127.246094 0)"/>
       <use xlink:href="#DejaVuSans-30" transform="translate(190.869141 0)"/>
      </g>
     </g>
    </g>
    <g id="ytick_7">
     <g id="line2d_29">
      <path d="M 52.4 45.363432 
L 435.6 45.363432 
" clip-path="url(#pc0d378bb53)" style="fill: none; stroke: #b0b0b0; stroke-opacity: 0.12; stroke-width: 0.8; stroke-linecap: square"/>
     </g>
     <g id="line2d_30">
      <g>
       <use xlink:href="#m9dc57a9029" x="52.4" y="45.363432" style="fill: #94a3b8; stroke: #94a3b8; stroke-width: 0.8"/>
      </g>
     </g>
     <g id="text_16">
      <!-- 1200 -->
      <g style="fill: #94a3b8" transform="translate(25.04 48.402807) scale(0.08 -0.08)">
       <use xlink:href="#DejaVuSans-31"/>
       <use xlink:href="#DejaVuSans-32" transform="translate(63.623047 0)"/>
       <use xlink:href="#DejaVuSans-30" transform="translate(127.246094 0)"/>
       <use xlink:href="#DejaVuSans-30" transform="translate(190.869141 0)"/>
      </g>
     </g>
    </g>
    <g id="text_17">
     <!-- cost -->
     <g style="fill: #334155" transform="translate(18.960313 133.153438) rotate(-90) scale(0.1 -0.1)">
      <defs>
       <path id="DejaVuSans-63" d="M 3122 3366 
L 3122 2828 
Q 2878 2963 2633 3030 
Q 2388 3097 2138 3097 
Q 1578 3097 1268 2742 
Q 959 2388 959 1747 
Q 959 1106 1268 751 
Q 1578 397 2138 397 
Q 2388 397 2633 464 
Q 2878 531 3122 666 
L 3122 134 
Q 2881 22 2623 -34 
Q 2366 -91 2075 -91 
Q 1284 -91 818 406 
Q 353 903 353 1747 
Q 353 2603 823 3093 
Q 1294 3584 2113 3584 
Q 2378 3584 2631 3529 
Q 2884 3475 3122 3366 
z
" transform="scale(0.015625)"/>
       <path id="DejaVuSans-6f" d="M 1959 3097 
Q 1497 3097 1228 2736 
Q 959 2375 959 1747 
Q 959 1119 1226 758 
Q 1494 397 1959 397 
Q 2419 397 2687 759 
Q 2956 1122 2956 1747 
Q 2956 2369 2687 2733 
Q 2419 3097 1959 3097 
z
M 1959 3584 
Q 2709 3584 3137 3096 
Q 3566 2609 3566 1747 
Q 3566 888 3137 398 
Q 2709 -91 1959 -91 
Q 1206 -91 779 398 
Q 353 888 353 1747 
Q 353 2609 779 3096 
Q 1206 3584 1959 3584 
z
" transform="scale(0.015625)"/>
       <path id="DejaVuSans-73" d="M 2834 3397 
L 2834 2853 
Q 2591 2978 2328 3040 
Q 2066 3103 1784 3103 
Q 1356 3103 1142 2972 
Q 928 2841 928 2578 
Q 928 2378 1081 2264 
Q 1234 2150 1697 2047 
L 1894 2003 
Q 2506 1872 2764 1633 
Q 3022 1394 3022 966 
Q 3022 478 2636 193 
Q 2250 -91 1575 -91 
Q 1294 -91 989 -36 
Q 684 19 347 128 
L 347 722 
Q 666 556 975 473 
Q 1284 391 1588 391 
Q 1994 391 2212 530 
Q 2431 669 2431 922 
Q 2431 1156 2273 1281 
Q 2116 1406 1581 1522 
L 1381 1569 
Q 847 1681 609 1914 
Q 372 2147 372 2553 
Q 372 3047 722 3315 
Q 1072 3584 1716 3584 
Q 2034 3584 2315 3537 
Q 2597 3491 2834 3397 
z
" transform="scale(0.015625)"/>
       <path id="DejaVuSans-74" d="M 1172 4494 
L 1172 3500 
L 2356 3500 
L 2356 3053 
L 1172 3053 
L 1172 1153 
Q 1172 725 1289 603 
Q 1406 481 1766 481 
L 2356 481 
L 2356 0 
L 1766 0 
Q 1100 0 847 248 
Q 594 497 594 1153 
L 594 3053 
L 172 3053 
L 172 3500 
L 594 3500 
L 594 4494 
L 1172 4494 
z
" transform="scale(0.015625)"/>
      </defs>
      <use xlink:href="#DejaVuSans-63"/>
      <use xlink:href="#DejaVuSans-6f" transform="translate(54.980469 0)"/>
      <use xlink:href="#DejaVuSans-73" transform="translate(116.162109 0)"/>
      <use xlink:href="#DejaVuSans-74" transform="translate(168.261719 0)"/>
     </g>
    </g>
   </g>
   <g id="line2d_31">
    <path d="M 69.818182 211.035579 
L 79.422192 210.44997 
L 89.026202 209.621278 
L 98.630212 208.549503 
L 108.234222 207.234644 
L 117.838232 205.676703 
L 127.442242 203.875679 
L 137.046252 201.831571 
L 146.650262 199.544381 
L 156.254272 197.014107 
L 165.858282 194.240751 
L 175.462292 191.224311 
L 185.066302 187.964788 
L 194.670312 184.462182 
L 204.274322 180.716494 
L 213.878332 176.727722 
L 223.482342 172.495867 
L 233.086352 168.020929 
L 242.690362 163.302908 
L 252.294372 158.341804 
L 261.898382 153.137617 
L 271.502392 147.690347 
L 281.106402 141.999993 
L 290.710412 136.066557 
L 300.314422 129.890038 
L 310.791524 122.874782 
L 321.268626 115.570237 
L 331.745728 107.976402 
L 342.22283 100.093279 
L 352.699932 91.920867 
L 363.177033 83.459167 
L 373.654135 74.708177 
L 384.131237 65.667898 
L 394.608339 56.338331 
L 405.085441 46.719474 
L 415.562543 36.811329 
L 418.181818 34.289091 
L 418.181818 34.289091 
" clip-path="url(#pc0d378bb53)" style="fill: none; stroke: #7c5cff; stroke-width: 2.2; stroke-linecap: square"/>
   </g>
   <g id="line2d_32">
    <path d="M 69.818182 209.402114 
L 81.168375 208.267685 
L 92.518569 206.92106 
L 103.868763 205.362239 
L 115.218956 203.591224 
L 126.56915 201.608013 
L 137.919344 199.412606 
L 149.269537 197.005004 
L 160.619731 194.385207 
L 172.843017 191.326579 
L 185.066302 188.021855 
L 197.289588 184.471034 
L 209.512873 180.674117 
L 221.736159 176.631104 
L 233.959444 172.341994 
L 246.18273 167.806787 
L 258.406015 163.025484 
L 270.629301 157.998085 
L 282.852586 152.724589 
L 295.075871 147.204997 
L 307.299157 141.439308 
L 319.522442 135.427523 
L 331.745728 129.169641 
L 343.969013 122.665662 
L 356.192299 115.915588 
L 368.415584 108.919416 
L 380.63887 101.677149 
L 392.862155 94.188785 
L 405.085441 86.454324 
L 418.181818 77.89431 
L 418.181818 77.89431 
" clip-path="url(#pc0d378bb53)" style="fill: none; stroke: #334155; stroke-width: 2.6; stroke-linecap: square"/>
   </g>
   <g id="line2d_33">
    <path d="M 69.818182 211.270909 
L 82.914559 210.868334 
L 96.010936 210.253878 
L 109.107314 209.42754 
L 122.203691 208.38932 
L 135.300068 207.139219 
L 148.396446 205.677237 
L 161.492823 204.003373 
L 174.5892 202.117627 
L 187.685578 200.02 
L 200.781955 197.710491 
L 213.878332 195.189101 
L 227.847801 192.266077 
L 241.81727 189.10198 
L 255.78674 185.696808 
L 269.756209 182.050563 
L 283.725678 178.163243 
L 297.695147 174.034849 
L 311.664616 169.665381 
L 325.634085 165.054839 
L 339.603554 160.203222 
L 353.573023 155.110532 
L 367.542493 149.776768 
L 381.511962 144.201929 
L 395.481431 138.386016 
L 409.4509 132.32903 
L 418.181818 128.420993 
L 418.181818 128.420993 
" clip-path="url(#pc0d378bb53)" style="fill: none; stroke: #e2483d; stroke-width: 2.2; stroke-linecap: square"/>
   </g>
   <g id="line2d_34">
    <path d="M 253.167464 220.12 
L 253.167464 25.44 
" clip-path="url(#pc0d378bb53)" style="fill: none; stroke-dasharray: 1.2,1.98; stroke-dashoffset: 0; stroke: #94a3b8; stroke-width: 1.2"/>
   </g>
   <g id="patch_3">
    <path d="M 52.4 220.12 
L 52.4 25.44 
" style="fill: none; stroke: #94a3b8; stroke-width: 0.8; stroke-linejoin: miter; stroke-linecap: square"/>
   </g>
   <g id="patch_4">
    <path d="M 52.4 220.12 
L 435.6 220.12 
" style="fill: none; stroke: #94a3b8; stroke-width: 0.8; stroke-linejoin: miter; stroke-linecap: square"/>
   </g>
   <g id="text_18">
    <!-- n₀ -->
    <g style="fill: #94a3b8" transform="translate(247.476683 210.371119) scale(0.11 -0.11)">
     <defs>
      <path id="DejaVuSans-2080" d="M 1781 2115 
Q 1625 2384 1309 2384 
Q 994 2384 838 2115 
Q 678 1846 678 1309 
Q 678 768 838 500 
Q 994 231 1309 231 
Q 1625 231 1781 500 
Q 1941 768 1941 1309 
Q 1941 1846 1781 2115 
z
M 1309 2662 
Q 1813 2662 2078 2315 
Q 2344 1968 2344 1309 
Q 2344 646 2078 299 
Q 1813 -47 1309 -47 
Q 803 -47 537 299 
Q 272 646 272 1309 
Q 272 1968 537 2315 
Q 803 2662 1309 2662 
z
" transform="scale(0.015625)"/>
     </defs>
     <use xlink:href="#DejaVuSans-6e"/>
     <use xlink:href="#DejaVuSans-2080" transform="translate(63.378906 0)"/>
    </g>
   </g>
   <g id="text_19">
    <!-- f(n) is -->
    <g style="fill: #d39a00" transform="translate(330.428824 154.599082) scale(0.1 -0.1)">
     <defs>
      <path id="DejaVuSans-66" d="M 2375 4863 
L 2375 4384 
L 1825 4384 
Q 1516 4384 1395 4259 
Q 1275 4134 1275 3809 
L 1275 3500 
L 2222 3500 
L 2222 3053 
L 1275 3053 
L 1275 0 
L 697 0 
L 697 3053 
L 147 3053 
L 147 3500 
L 697 3500 
L 697 3744 
Q 697 4328 969 4595 
Q 1241 4863 1831 4863 
L 2375 4863 
z
" transform="scale(0.015625)"/>
      <path id="DejaVuSans-28" d="M 1984 4856 
Q 1566 4138 1362 3434 
Q 1159 2731 1159 2009 
Q 1159 1288 1364 580 
Q 1569 -128 1984 -844 
L 1484 -844 
Q 1016 -109 783 600 
Q 550 1309 550 2009 
Q 550 2706 781 3412 
Q 1013 4119 1484 4856 
L 1984 4856 
z
" transform="scale(0.015625)"/>
      <path id="DejaVuSans-29" d="M 513 4856 
L 1013 4856 
Q 1481 4119 1714 3412 
Q 1947 2706 1947 2009 
Q 1947 1309 1714 600 
Q 1481 -109 1013 -844 
L 513 -844 
Q 928 -128 1133 580 
Q 1338 1288 1338 2009 
Q 1338 2731 1133 3434 
Q 928 4138 513 4856 
z
" transform="scale(0.015625)"/>
      <path id="DejaVuSans-20" transform="scale(0.015625)"/>
      <path id="DejaVuSans-69" d="M 603 3500 
L 1178 3500 
L 1178 0 
L 603 0 
L 603 3500 
z
M 603 4863 
L 1178 4863 
L 1178 4134 
L 603 4134 
L 603 4863 
z
" transform="scale(0.015625)"/>
     </defs>
     <use xlink:href="#DejaVuSans-66"/>
     <use xlink:href="#DejaVuSans-28" transform="translate(35.205078 0)"/>
     <use xlink:href="#DejaVuSans-6e" transform="translate(74.21875 0)"/>
     <use xlink:href="#DejaVuSans-29" transform="translate(137.597656 0)"/>
     <use xlink:href="#DejaVuSans-20" transform="translate(176.611328 0)"/>
     <use xlink:href="#DejaVuSans-69" transform="translate(208.398438 0)"/>
     <use xlink:href="#DejaVuSans-73" transform="translate(236.181641 0)"/>
    </g>
    <!-- sandwiched -->
    <g style="fill: #d39a00" transform="translate(315.183512 165.796895) scale(0.1 -0.1)">
     <defs>
      <path id="DejaVuSans-61" d="M 2194 1759 
Q 1497 1759 1228 1600 
Q 959 1441 959 1056 
Q 959 750 1161 570 
Q 1363 391 1709 391 
Q 2188 391 2477 730 
Q 2766 1069 2766 1631 
L 2766 1759 
L 2194 1759 
z
M 3341 1997 
L 3341 0 
L 2766 0 
L 2766 531 
Q 2569 213 2275 61 
Q 1981 -91 1556 -91 
Q 1019 -91 701 211 
Q 384 513 384 1019 
Q 384 1609 779 1909 
Q 1175 2209 1959 2209 
L 2766 2209 
L 2766 2266 
Q 2766 2663 2505 2880 
Q 2244 3097 1772 3097 
Q 1472 3097 1187 3025 
Q 903 2953 641 2809 
L 641 3341 
Q 956 3463 1253 3523 
Q 1550 3584 1831 3584 
Q 2591 3584 2966 3190 
Q 3341 2797 3341 1997 
z
" transform="scale(0.015625)"/>
      <path id="DejaVuSans-64" d="M 2906 2969 
L 2906 4863 
L 3481 4863 
L 3481 0 
L 2906 0 
L 2906 525 
Q 2725 213 2448 61 
Q 2172 -91 1784 -91 
Q 1150 -91 751 415 
Q 353 922 353 1747 
Q 353 2572 751 3078 
Q 1150 3584 1784 3584 
Q 2172 3584 2448 3432 
Q 2725 3281 2906 2969 
z
M 947 1747 
Q 947 1113 1208 752 
Q 1469 391 1925 391 
Q 2381 391 2643 752 
Q 2906 1113 2906 1747 
Q 2906 2381 2643 2742 
Q 2381 3103 1925 3103 
Q 1469 3103 1208 2742 
Q 947 2381 947 1747 
z
" transform="scale(0.015625)"/>
      <path id="DejaVuSans-77" d="M 269 3500 
L 844 3500 
L 1563 769 
L 2278 3500 
L 2956 3500 
L 3675 769 
L 4391 3500 
L 4966 3500 
L 4050 0 
L 3372 0 
L 2619 2869 
L 1863 0 
L 1184 0 
L 269 3500 
z
" transform="scale(0.015625)"/>
      <path id="DejaVuSans-68" d="M 3513 2113 
L 3513 0 
L 2938 0 
L 2938 2094 
Q 2938 2591 2744 2837 
Q 2550 3084 2163 3084 
Q 1697 3084 1428 2787 
Q 1159 2491 1159 1978 
L 1159 0 
L 581 0 
L 581 4863 
L 1159 4863 
L 1159 2956 
Q 1366 3272 1645 3428 
Q 1925 3584 2291 3584 
Q 2894 3584 3203 3211 
Q 3513 2838 3513 2113 
z
" transform="scale(0.015625)"/>
      <path id="DejaVuSans-65" d="M 3597 1894 
L 3597 1613 
L 953 1613 
Q 991 1019 1311 708 
Q 1631 397 2203 397 
Q 2534 397 2845 478 
Q 3156 559 3463 722 
L 3463 178 
Q 3153 47 2828 -22 
Q 2503 -91 2169 -91 
Q 1331 -91 842 396 
Q 353 884 353 1716 
Q 353 2575 817 3079 
Q 1281 3584 2069 3584 
Q 2775 3584 3186 3129 
Q 3597 2675 3597 1894 
z
M 3022 2063 
Q 3016 2534 2758 2815 
Q 2500 3097 2075 3097 
Q 1594 3097 1305 2825 
Q 1016 2553 972 2059 
L 3022 2063 
z
" transform="scale(0.015625)"/>
     </defs>
     <use xlink:href="#DejaVuSans-73"/>
     <use xlink:href="#DejaVuSans-61" transform="translate(52.099609 0)"/>
     <use xlink:href="#DejaVuSans-6e" transform="translate(113.378906 0)"/>
     <use xlink:href="#DejaVuSans-64" transform="translate(176.757812 0)"/>
     <use xlink:href="#DejaVuSans-77" transform="translate(240.234375 0)"/>
     <use xlink:href="#DejaVuSans-69" transform="translate(322.021484 0)"/>
     <use xlink:href="#DejaVuSans-63" transform="translate(349.804688 0)"/>
     <use xlink:href="#DejaVuSans-68" transform="translate(404.785156 0)"/>
     <use xlink:href="#DejaVuSans-65" transform="translate(468.164062 0)"/>
     <use xlink:href="#DejaVuSans-64" transform="translate(529.6875 0)"/>
    </g>
   </g>
   <g id="text_20">
    <!-- Big-Θ: a tight bound (squeezed both sides) -->
    <g style="fill: #334155" transform="translate(98.155 19.44) scale(0.12 -0.12)">
     <defs>
      <path id="DejaVuSans-Bold-42" d="M 2456 2859 
Q 2741 2859 2887 2984 
Q 3034 3109 3034 3353 
Q 3034 3594 2887 3720 
Q 2741 3847 2456 3847 
L 1791 3847 
L 1791 2859 
L 2456 2859 
z
M 2497 819 
Q 2859 819 3042 972 
Q 3225 1125 3225 1434 
Q 3225 1738 3044 1889 
Q 2863 2041 2497 2041 
L 1791 2041 
L 1791 819 
L 2497 819 
z
M 3616 2497 
Q 4003 2384 4215 2081 
Q 4428 1778 4428 1338 
Q 4428 663 3972 331 
Q 3516 0 2584 0 
L 588 0 
L 588 4666 
L 2394 4666 
Q 3366 4666 3802 4372 
Q 4238 4078 4238 3431 
Q 4238 3091 4078 2852 
Q 3919 2613 3616 2497 
z
" transform="scale(0.015625)"/>
      <path id="DejaVuSans-Bold-69" d="M 538 3500 
L 1656 3500 
L 1656 0 
L 538 0 
L 538 3500 
z
M 538 4863 
L 1656 4863 
L 1656 3950 
L 538 3950 
L 538 4863 
z
" transform="scale(0.015625)"/>
      <path id="DejaVuSans-Bold-67" d="M 2919 594 
Q 2688 288 2409 144 
Q 2131 0 1766 0 
Q 1125 0 706 504 
Q 288 1009 288 1791 
Q 288 2575 706 3076 
Q 1125 3578 1766 3578 
Q 2131 3578 2409 3434 
Q 2688 3291 2919 2981 
L 2919 3500 
L 4044 3500 
L 4044 353 
Q 4044 -491 3511 -936 
Q 2978 -1381 1966 -1381 
Q 1638 -1381 1331 -1331 
Q 1025 -1281 716 -1178 
L 716 -306 
Q 1009 -475 1290 -558 
Q 1572 -641 1856 -641 
Q 2406 -641 2662 -400 
Q 2919 -159 2919 353 
L 2919 594 
z
M 2181 2772 
Q 1834 2772 1640 2515 
Q 1447 2259 1447 1791 
Q 1447 1309 1634 1061 
Q 1822 813 2181 813 
Q 2531 813 2725 1069 
Q 2919 1325 2919 1791 
Q 2919 2259 2725 2515 
Q 2531 2772 2181 2772 
z
" transform="scale(0.015625)"/>
      <path id="DejaVuSans-Bold-2d" d="M 347 2297 
L 2309 2297 
L 2309 1388 
L 347 1388 
L 347 2297 
z
" transform="scale(0.015625)"/>
      <path id="DejaVuSans-Bold-398" d="M 2719 3878 
Q 2169 3878 1866 3472 
Q 1563 3066 1563 2328 
Q 1563 1594 1866 1187 
Q 2169 781 2719 781 
Q 3272 781 3575 1187 
Q 3878 1594 3878 2328 
Q 3878 3066 3575 3472 
Q 3272 3878 2719 3878 
z
M 2719 4750 
Q 3844 4750 4481 4106 
Q 5119 3463 5119 2328 
Q 5119 1197 4481 553 
Q 3844 -91 2719 -91 
Q 1597 -91 958 553 
Q 319 1197 319 2328 
Q 319 3463 958 4106 
Q 1597 4750 2719 4750 
z
M 1922 2888 
L 3519 2888 
L 3519 1978 
L 1922 1978 
L 1922 2888 
z
" transform="scale(0.015625)"/>
      <path id="DejaVuSans-Bold-3a" d="M 716 3500 
L 1844 3500 
L 1844 2291 
L 716 2291 
L 716 3500 
z
M 716 1209 
L 1844 1209 
L 1844 0 
L 716 0 
L 716 1209 
z
" transform="scale(0.015625)"/>
      <path id="DejaVuSans-Bold-20" transform="scale(0.015625)"/>
      <path id="DejaVuSans-Bold-61" d="M 2106 1575 
Q 1756 1575 1579 1456 
Q 1403 1338 1403 1106 
Q 1403 894 1545 773 
Q 1688 653 1941 653 
Q 2256 653 2472 879 
Q 2688 1106 2688 1447 
L 2688 1575 
L 2106 1575 
z
M 3816 1997 
L 3816 0 
L 2688 0 
L 2688 519 
Q 2463 200 2181 54 
Q 1900 -91 1497 -91 
Q 953 -91 614 226 
Q 275 544 275 1050 
Q 275 1666 698 1953 
Q 1122 2241 2028 2241 
L 2688 2241 
L 2688 2328 
Q 2688 2594 2478 2717 
Q 2269 2841 1825 2841 
Q 1466 2841 1156 2769 
Q 847 2697 581 2553 
L 581 3406 
Q 941 3494 1303 3539 
Q 1666 3584 2028 3584 
Q 2975 3584 3395 3211 
Q 3816 2838 3816 1997 
z
" transform="scale(0.015625)"/>
      <path id="DejaVuSans-Bold-74" d="M 1759 4494 
L 1759 3500 
L 2913 3500 
L 2913 2700 
L 1759 2700 
L 1759 1216 
Q 1759 972 1856 886 
Q 1953 800 2241 800 
L 2816 800 
L 2816 0 
L 1856 0 
Q 1194 0 917 276 
Q 641 553 641 1216 
L 641 2700 
L 84 2700 
L 84 3500 
L 641 3500 
L 641 4494 
L 1759 4494 
z
" transform="scale(0.015625)"/>
      <path id="DejaVuSans-Bold-68" d="M 4056 2131 
L 4056 0 
L 2931 0 
L 2931 347 
L 2931 1625 
Q 2931 2084 2911 2256 
Q 2891 2428 2841 2509 
Q 2775 2619 2662 2680 
Q 2550 2741 2406 2741 
Q 2056 2741 1856 2470 
Q 1656 2200 1656 1722 
L 1656 0 
L 538 0 
L 538 4863 
L 1656 4863 
L 1656 2988 
Q 1909 3294 2193 3439 
Q 2478 3584 2822 3584 
Q 3428 3584 3742 3212 
Q 4056 2841 4056 2131 
z
" transform="scale(0.015625)"/>
      <path id="DejaVuSans-Bold-62" d="M 2400 722 
Q 2759 722 2948 984 
Q 3138 1247 3138 1747 
Q 3138 2247 2948 2509 
Q 2759 2772 2400 2772 
Q 2041 2772 1848 2508 
Q 1656 2244 1656 1747 
Q 1656 1250 1848 986 
Q 2041 722 2400 722 
z
M 1656 2988 
Q 1888 3294 2169 3439 
Q 2450 3584 2816 3584 
Q 3463 3584 3878 3070 
Q 4294 2556 4294 1747 
Q 4294 938 3878 423 
Q 3463 -91 2816 -91 
Q 2450 -91 2169 54 
Q 1888 200 1656 506 
L 1656 0 
L 538 0 
L 538 4863 
L 1656 4863 
L 1656 2988 
z
" transform="scale(0.015625)"/>
      <path id="DejaVuSans-Bold-6f" d="M 2203 2784 
Q 1831 2784 1636 2517 
Q 1441 2250 1441 1747 
Q 1441 1244 1636 976 
Q 1831 709 2203 709 
Q 2569 709 2762 976 
Q 2956 1244 2956 1747 
Q 2956 2250 2762 2517 
Q 2569 2784 2203 2784 
z
M 2203 3584 
Q 3106 3584 3614 3096 
Q 4122 2609 4122 1747 
Q 4122 884 3614 396 
Q 3106 -91 2203 -91 
Q 1297 -91 786 396 
Q 275 884 275 1747 
Q 275 2609 786 3096 
Q 1297 3584 2203 3584 
z
" transform="scale(0.015625)"/>
      <path id="DejaVuSans-Bold-75" d="M 500 1363 
L 500 3500 
L 1625 3500 
L 1625 3150 
Q 1625 2866 1622 2436 
Q 1619 2006 1619 1863 
Q 1619 1441 1641 1255 
Q 1663 1069 1716 984 
Q 1784 875 1895 815 
Q 2006 756 2150 756 
Q 2500 756 2700 1025 
Q 2900 1294 2900 1772 
L 2900 3500 
L 4019 3500 
L 4019 0 
L 2900 0 
L 2900 506 
Q 2647 200 2364 54 
Q 2081 -91 1741 -91 
Q 1134 -91 817 281 
Q 500 653 500 1363 
z
" transform="scale(0.015625)"/>
      <path id="DejaVuSans-Bold-6e" d="M 4056 2131 
L 4056 0 
L 2931 0 
L 2931 347 
L 2931 1631 
Q 2931 2084 2911 2256 
Q 2891 2428 2841 2509 
Q 2775 2619 2662 2680 
Q 2550 2741 2406 2741 
Q 2056 2741 1856 2470 
Q 1656 2200 1656 1722 
L 1656 0 
L 538 0 
L 538 3500 
L 1656 3500 
L 1656 2988 
Q 1909 3294 2193 3439 
Q 2478 3584 2822 3584 
Q 3428 3584 3742 3212 
Q 4056 2841 4056 2131 
z
" transform="scale(0.015625)"/>
      <path id="DejaVuSans-Bold-64" d="M 2919 2988 
L 2919 4863 
L 4044 4863 
L 4044 0 
L 2919 0 
L 2919 506 
Q 2688 197 2409 53 
Q 2131 -91 1766 -91 
Q 1119 -91 703 423 
Q 288 938 288 1747 
Q 288 2556 703 3070 
Q 1119 3584 1766 3584 
Q 2128 3584 2408 3439 
Q 2688 3294 2919 2988 
z
M 2181 722 
Q 2541 722 2730 984 
Q 2919 1247 2919 1747 
Q 2919 2247 2730 2509 
Q 2541 2772 2181 2772 
Q 1825 2772 1636 2509 
Q 1447 2247 1447 1747 
Q 1447 1247 1636 984 
Q 1825 722 2181 722 
z
" transform="scale(0.015625)"/>
      <path id="DejaVuSans-Bold-28" d="M 2413 -844 
L 1484 -844 
Q 1006 -72 778 623 
Q 550 1319 550 2003 
Q 550 2688 779 3389 
Q 1009 4091 1484 4856 
L 2413 4856 
Q 2013 4116 1813 3408 
Q 1613 2700 1613 2009 
Q 1613 1319 1811 609 
Q 2009 -100 2413 -844 
z
" transform="scale(0.015625)"/>
      <path id="DejaVuSans-Bold-73" d="M 3272 3391 
L 3272 2541 
Q 2913 2691 2578 2766 
Q 2244 2841 1947 2841 
Q 1628 2841 1473 2761 
Q 1319 2681 1319 2516 
Q 1319 2381 1436 2309 
Q 1553 2238 1856 2203 
L 2053 2175 
Q 2913 2066 3209 1816 
Q 3506 1566 3506 1031 
Q 3506 472 3093 190 
Q 2681 -91 1863 -91 
Q 1516 -91 1145 -36 
Q 775 19 384 128 
L 384 978 
Q 719 816 1070 734 
Q 1422 653 1784 653 
Q 2113 653 2278 743 
Q 2444 834 2444 1013 
Q 2444 1163 2330 1236 
Q 2216 1309 1875 1350 
L 1678 1375 
Q 931 1469 631 1722 
Q 331 1975 331 2491 
Q 331 3047 712 3315 
Q 1094 3584 1881 3584 
Q 2191 3584 2531 3537 
Q 2872 3491 3272 3391 
z
" transform="scale(0.015625)"/>
      <path id="DejaVuSans-Bold-71" d="M 2181 2772 
Q 1825 2772 1636 2509 
Q 1447 2247 1447 1747 
Q 1447 1247 1636 984 
Q 1825 722 2181 722 
Q 2541 722 2730 984 
Q 2919 1247 2919 1747 
Q 2919 2247 2730 2509 
Q 2541 2772 2181 2772 
z
M 2919 506 
Q 2688 197 2409 53 
Q 2131 -91 1766 -91 
Q 1119 -91 703 423 
Q 288 938 288 1747 
Q 288 2556 703 3067 
Q 1119 3578 1766 3578 
Q 2131 3578 2409 3434 
Q 2688 3291 2919 2981 
L 2919 3500 
L 4044 3500 
L 4044 -1331 
L 2919 -1331 
L 2919 506 
z
" transform="scale(0.015625)"/>
      <path id="DejaVuSans-Bold-65" d="M 4031 1759 
L 4031 1441 
L 1416 1441 
Q 1456 1047 1700 850 
Q 1944 653 2381 653 
Q 2734 653 3104 758 
Q 3475 863 3866 1075 
L 3866 213 
Q 3469 63 3072 -14 
Q 2675 -91 2278 -91 
Q 1328 -91 801 392 
Q 275 875 275 1747 
Q 275 2603 792 3093 
Q 1309 3584 2216 3584 
Q 3041 3584 3536 3087 
Q 4031 2591 4031 1759 
z
M 2881 2131 
Q 2881 2450 2695 2645 
Q 2509 2841 2209 2841 
Q 1884 2841 1681 2658 
Q 1478 2475 1428 2131 
L 2881 2131 
z
" transform="scale(0.015625)"/>
      <path id="DejaVuSans-Bold-7a" d="M 366 3500 
L 3419 3500 
L 3419 2719 
L 1575 800 
L 3419 800 
L 3419 0 
L 288 0 
L 288 781 
L 2131 2700 
L 366 2700 
L 366 3500 
z
" transform="scale(0.015625)"/>
      <path id="DejaVuSans-Bold-29" d="M 513 -844 
Q 913 -100 1113 609 
Q 1313 1319 1313 2009 
Q 1313 2700 1113 3408 
Q 913 4116 513 4856 
L 1441 4856 
Q 1916 4091 2145 3389 
Q 2375 2688 2375 2003 
Q 2375 1319 2147 623 
Q 1919 -72 1441 -844 
L 513 -844 
z
" transform="scale(0.015625)"/>
     </defs>
     <use xlink:href="#DejaVuSans-Bold-42"/>
     <use xlink:href="#DejaVuSans-Bold-69" transform="translate(76.220703 0)"/>
     <use xlink:href="#DejaVuSans-Bold-67" transform="translate(110.498047 0)"/>
     <use xlink:href="#DejaVuSans-Bold-2d" transform="translate(182.080078 0)"/>
     <use xlink:href="#DejaVuSans-Bold-398" transform="translate(223.583984 0)"/>
     <use xlink:href="#DejaVuSans-Bold-3a" transform="translate(308.59375 0)"/>
     <use xlink:href="#DejaVuSans-Bold-20" transform="translate(348.583984 0)"/>
     <use xlink:href="#DejaVuSans-Bold-61" transform="translate(383.398438 0)"/>
     <use xlink:href="#DejaVuSans-Bold-20" transform="translate(450.878906 0)"/>
     <use xlink:href="#DejaVuSans-Bold-74" transform="translate(485.693359 0)"/>
     <use xlink:href="#DejaVuSans-Bold-69" transform="translate(533.496094 0)"/>
     <use xlink:href="#DejaVuSans-Bold-67" transform="translate(567.773438 0)"/>
     <use xlink:href="#DejaVuSans-Bold-68" transform="translate(639.355469 0)"/>
     <use xlink:href="#DejaVuSans-Bold-74" transform="translate(710.546875 0)"/>
     <use xlink:href="#DejaVuSans-Bold-20" transform="translate(758.349609 0)"/>
     <use xlink:href="#DejaVuSans-Bold-62" transform="translate(793.164062 0)"/>
     <use xlink:href="#DejaVuSans-Bold-6f" transform="translate(864.746094 0)"/>
     <use xlink:href="#DejaVuSans-Bold-75" transform="translate(933.447266 0)"/>
     <use xlink:href="#DejaVuSans-Bold-6e" transform="translate(1004.638672 0)"/>
     <use xlink:href="#DejaVuSans-Bold-64" transform="translate(1075.830078 0)"/>
     <use xlink:href="#DejaVuSans-Bold-20" transform="translate(1147.412109 0)"/>
     <use xlink:href="#DejaVuSans-Bold-28" transform="translate(1182.226562 0)"/>
     <use xlink:href="#DejaVuSans-Bold-73" transform="translate(1227.929688 0)"/>
     <use xlink:href="#DejaVuSans-Bold-71" transform="translate(1287.451172 0)"/>
     <use xlink:href="#DejaVuSans-Bold-75" transform="translate(1359.033203 0)"/>
     <use xlink:href="#DejaVuSans-Bold-65" transform="translate(1430.224609 0)"/>
     <use xlink:href="#DejaVuSans-Bold-65" transform="translate(1498.046875 0)"/>
     <use xlink:href="#DejaVuSans-Bold-7a" transform="translate(1565.869141 0)"/>
     <use xlink:href="#DejaVuSans-Bold-65" transform="translate(1624.072266 0)"/>
     <use xlink:href="#DejaVuSans-Bold-64" transform="translate(1691.894531 0)"/>
     <use xlink:href="#DejaVuSans-Bold-20" transform="translate(1763.476562 0)"/>
     <use xlink:href="#DejaVuSans-Bold-62" transform="translate(1798.291016 0)"/>
     <use xlink:href="#DejaVuSans-Bold-6f" transform="translate(1869.873047 0)"/>
     <use xlink:href="#DejaVuSans-Bold-74" transform="translate(1938.574219 0)"/>
     <use xlink:href="#DejaVuSans-Bold-68" transform="translate(1986.376953 0)"/>
     <use xlink:href="#DejaVuSans-Bold-20" transform="translate(2057.568359 0)"/>
     <use xlink:href="#DejaVuSans-Bold-73" transform="translate(2092.382812 0)"/>
     <use xlink:href="#DejaVuSans-Bold-69" transform="translate(2151.904297 0)"/>
     <use xlink:href="#DejaVuSans-Bold-64" transform="translate(2186.181641 0)"/>
     <use xlink:href="#DejaVuSans-Bold-65" transform="translate(2257.763672 0)"/>
     <use xlink:href="#DejaVuSans-Bold-73" transform="translate(2325.585938 0)"/>
     <use xlink:href="#DejaVuSans-Bold-29" transform="translate(2385.107422 0)"/>
    </g>
   </g>
   <g id="legend_1">
    <g id="line2d_35">
     <path d="M 60.5 37.228594 
L 69.5 37.228594 
L 78.5 37.228594 
" style="fill: none; stroke: #7c5cff; stroke-width: 2.2; stroke-linecap: square"/>
    </g>
    <g id="text_21">
     <!-- b·g(n) = 3.2n² -->
     <g transform="translate(85.7 40.378594) scale(0.09 -0.09)">
      <defs>
       <path id="DejaVuSans-62" d="M 3116 1747 
Q 3116 2381 2855 2742 
Q 2594 3103 2138 3103 
Q 1681 3103 1420 2742 
Q 1159 2381 1159 1747 
Q 1159 1113 1420 752 
Q 1681 391 2138 391 
Q 2594 391 2855 752 
Q 3116 1113 3116 1747 
z
M 1159 2969 
Q 1341 3281 1617 3432 
Q 1894 3584 2278 3584 
Q 2916 3584 3314 3078 
Q 3713 2572 3713 1747 
Q 3713 922 3314 415 
Q 2916 -91 2278 -91 
Q 1894 -91 1617 61 
Q 1341 213 1159 525 
L 1159 0 
L 581 0 
L 581 4863 
L 1159 4863 
L 1159 2969 
z
" transform="scale(0.015625)"/>
       <path id="DejaVuSans-b7" d="M 684 2619 
L 1344 2619 
L 1344 1825 
L 684 1825 
L 684 2619 
z
" transform="scale(0.015625)"/>
       <path id="DejaVuSans-67" d="M 2906 1791 
Q 2906 2416 2648 2759 
Q 2391 3103 1925 3103 
Q 1463 3103 1205 2759 
Q 947 2416 947 1791 
Q 947 1169 1205 825 
Q 1463 481 1925 481 
Q 2391 481 2648 825 
Q 2906 1169 2906 1791 
z
M 3481 434 
Q 3481 -459 3084 -895 
Q 2688 -1331 1869 -1331 
Q 1566 -1331 1297 -1286 
Q 1028 -1241 775 -1147 
L 775 -588 
Q 1028 -725 1275 -790 
Q 1522 -856 1778 -856 
Q 2344 -856 2625 -561 
Q 2906 -266 2906 331 
L 2906 616 
Q 2728 306 2450 153 
Q 2172 0 1784 0 
Q 1141 0 747 490 
Q 353 981 353 1791 
Q 353 2603 747 3093 
Q 1141 3584 1784 3584 
Q 2172 3584 2450 3431 
Q 2728 3278 2906 2969 
L 2906 3500 
L 3481 3500 
L 3481 434 
z
" transform="scale(0.015625)"/>
       <path id="DejaVuSans-3d" d="M 678 2906 
L 4684 2906 
L 4684 2381 
L 678 2381 
L 678 2906 
z
M 678 1631 
L 4684 1631 
L 4684 1100 
L 678 1100 
L 678 1631 
z
" transform="scale(0.015625)"/>
       <path id="DejaVuSans-33" d="M 2597 2516 
Q 3050 2419 3304 2112 
Q 3559 1806 3559 1356 
Q 3559 666 3084 287 
Q 2609 -91 1734 -91 
Q 1441 -91 1130 -33 
Q 819 25 488 141 
L 488 750 
Q 750 597 1062 519 
Q 1375 441 1716 441 
Q 2309 441 2620 675 
Q 2931 909 2931 1356 
Q 2931 1769 2642 2001 
Q 2353 2234 1838 2234 
L 1294 2234 
L 1294 2753 
L 1863 2753 
Q 2328 2753 2575 2939 
Q 2822 3125 2822 3475 
Q 2822 3834 2567 4026 
Q 2313 4219 1838 4219 
Q 1578 4219 1281 4162 
Q 984 4106 628 3988 
L 628 4550 
Q 988 4650 1302 4700 
Q 1616 4750 1894 4750 
Q 2613 4750 3031 4423 
Q 3450 4097 3450 3541 
Q 3450 3153 3228 2886 
Q 3006 2619 2597 2516 
z
" transform="scale(0.015625)"/>
       <path id="DejaVuSans-b2" d="M 838 2444 
L 2163 2444 
L 2163 2088 
L 294 2088 
L 294 2431 
Q 400 2528 597 2703 
Q 1672 3656 1672 3950 
Q 1672 4156 1509 4282 
Q 1347 4409 1081 4409 
Q 919 4409 728 4354 
Q 538 4300 313 4191 
L 313 4575 
Q 553 4663 761 4706 
Q 969 4750 1147 4750 
Q 1600 4750 1872 4544 
Q 2144 4338 2144 4000 
Q 2144 3566 1109 2678 
Q 934 2528 838 2444 
z
" transform="scale(0.015625)"/>
      </defs>
      <use xlink:href="#DejaVuSans-62"/>
      <use xlink:href="#DejaVuSans-b7" transform="translate(63.476562 0)"/>
      <use xlink:href="#DejaVuSans-67" transform="translate(95.263672 0)"/>
      <use xlink:href="#DejaVuSans-28" transform="translate(158.740234 0)"/>
      <use xlink:href="#DejaVuSans-6e" transform="translate(197.753906 0)"/>
      <use xlink:href="#DejaVuSans-29" transform="translate(261.132812 0)"/>
      <use xlink:href="#DejaVuSans-20" transform="translate(300.146484 0)"/>
      <use xlink:href="#DejaVuSans-3d" transform="translate(331.933594 0)"/>
      <use xlink:href="#DejaVuSans-20" transform="translate(415.722656 0)"/>
      <use xlink:href="#DejaVuSans-33" transform="translate(447.509766 0)"/>
      <use xlink:href="#DejaVuSans-2e" transform="translate(511.132812 0)"/>
      <use xlink:href="#DejaVuSans-32" transform="translate(542.919922 0)"/>
      <use xlink:href="#DejaVuSans-6e" transform="translate(606.542969 0)"/>
      <use xlink:href="#DejaVuSans-b2" transform="translate(669.921875 0)"/>
     </g>
    </g>
    <g id="line2d_36">
     <path d="M 60.5 50.438906 
L 69.5 50.438906 
L 78.5 50.438906 
" style="fill: none; stroke: #334155; stroke-width: 2.6; stroke-linecap: square"/>
    </g>
    <g id="text_22">
     <!-- f(n) = 2n²+8n+5 -->
     <g transform="translate(85.7 53.588906) scale(0.09 -0.09)">
      <defs>
       <path id="DejaVuSans-2b" d="M 2944 4013 
L 2944 2272 
L 4684 2272 
L 4684 1741 
L 2944 1741 
L 2944 0 
L 2419 0 
L 2419 1741 
L 678 1741 
L 678 2272 
L 2419 2272 
L 2419 4013 
L 2944 4013 
z
" transform="scale(0.015625)"/>
      </defs>
      <use xlink:href="#DejaVuSans-66"/>
      <use xlink:href="#DejaVuSans-28" transform="translate(35.205078 0)"/>
      <use xlink:href="#DejaVuSans-6e" transform="translate(74.21875 0)"/>
      <use xlink:href="#DejaVuSans-29" transform="translate(137.597656 0)"/>
      <use xlink:href="#DejaVuSans-20" transform="translate(176.611328 0)"/>
      <use xlink:href="#DejaVuSans-3d" transform="translate(208.398438 0)"/>
      <use xlink:href="#DejaVuSans-20" transform="translate(292.1875 0)"/>
      <use xlink:href="#DejaVuSans-32" transform="translate(323.974609 0)"/>
      <use xlink:href="#DejaVuSans-6e" transform="translate(387.597656 0)"/>
      <use xlink:href="#DejaVuSans-b2" transform="translate(450.976562 0)"/>
      <use xlink:href="#DejaVuSans-2b" transform="translate(491.064453 0)"/>
      <use xlink:href="#DejaVuSans-38" transform="translate(574.853516 0)"/>
      <use xlink:href="#DejaVuSans-6e" transform="translate(638.476562 0)"/>
      <use xlink:href="#DejaVuSans-2b" transform="translate(701.855469 0)"/>
      <use xlink:href="#DejaVuSans-35" transform="translate(785.644531 0)"/>
     </g>
    </g>
    <g id="line2d_37">
     <path d="M 60.5 63.649219 
L 69.5 63.649219 
L 78.5 63.649219 
" style="fill: none; stroke: #e2483d; stroke-width: 2.2; stroke-linecap: square"/>
    </g>
    <g id="text_23">
     <!-- a·g(n) = 1.5n² -->
     <g transform="translate(85.7 66.799219) scale(0.09 -0.09)">
      <use xlink:href="#DejaVuSans-61"/>
      <use xlink:href="#DejaVuSans-b7" transform="translate(61.279297 0)"/>
      <use xlink:href="#DejaVuSans-67" transform="translate(93.066406 0)"/>
      <use xlink:href="#DejaVuSans-28" transform="translate(156.542969 0)"/>
      <use xlink:href="#DejaVuSans-6e" transform="translate(195.556641 0)"/>
      <use xlink:href="#DejaVuSans-29" transform="translate(258.935547 0)"/>
      <use xlink:href="#DejaVuSans-20" transform="translate(297.949219 0)"/>
      <use xlink:href="#DejaVuSans-3d" transform="translate(329.736328 0)"/>
      <use xlink:href="#DejaVuSans-20" transform="translate(413.525391 0)"/>
      <use xlink:href="#DejaVuSans-31" transform="translate(445.3125 0)"/>
      <use xlink:href="#DejaVuSans-2e" transform="translate(508.935547 0)"/>
      <use xlink:href="#DejaVuSans-35" transform="translate(540.722656 0)"/>
      <use xlink:href="#DejaVuSans-6e" transform="translate(604.345703 0)"/>
      <use xlink:href="#DejaVuSans-b2" transform="translate(667.724609 0)"/>
     </g>
    </g>
   </g>
  </g>
 </g>
 <defs>
  <clipPath id="pc0d378bb53">
   <rect x="52.4" y="25.44" width="383.2" height="194.68"/>
  </clipPath>
 </defs>
</svg>
